<svg xmlns="http://www.w3.org/2000/svg" viewBox="0 0 720 620" width="720" height="620" role="img" aria-label="市街地の模式地形図（地図記号）"><defs>
 <pattern id="pDiag" width="8" height="8" patternUnits="userSpaceOnUse">
  <rect width="8" height="8" fill="#fff"/><path d="M0 8 L8 0" stroke="#000" stroke-width="1.9"/></pattern>
 <pattern id="pDiag2" width="8" height="8" patternUnits="userSpaceOnUse">
  <rect width="8" height="8" fill="#fff"/><path d="M0 0 L8 8" stroke="#000" stroke-width="1.9"/></pattern>
 <pattern id="pDot" width="8" height="8" patternUnits="userSpaceOnUse">
  <rect width="8" height="8" fill="#fff"/><circle cx="2" cy="2" r="1.3" fill="#000"/>
  <circle cx="6" cy="6" r="1.3" fill="#000"/></pattern>
 <pattern id="pDotFine" width="5" height="5" patternUnits="userSpaceOnUse">
  <rect width="5" height="5" fill="#fff"/><circle cx="1.4" cy="1.4" r="0.9" fill="#000"/></pattern>
 <pattern id="pGrid" width="8" height="8" patternUnits="userSpaceOnUse">
  <rect width="8" height="8" fill="#fff"/>
  <path d="M0 4 H8 M4 0 V8" stroke="#000" stroke-width="1.23"/></pattern>
 <pattern id="pWave" width="10" height="8" patternUnits="userSpaceOnUse">
  <rect width="10" height="8" fill="#fff"/>
  <path d="M0 5 q2.5 -3 5 0 t5 0" stroke="#000" stroke-width="1.23" fill="none"/></pattern>
</defs><rect width="720" height="620" fill="#fff"/>
<g clip-path="url(#frame)">
<path d="M497.5 306.5 v7 M502.5 306.5 v7" stroke="#000" stroke-width="1.5" fill="none"/>
<path d="M523.5 306.5 v7 M528.5 306.5 v7" stroke="#000" stroke-width="1.5" fill="none"/>
<path d="M549.5 306.5 v7 M554.5 306.5 v7" stroke="#000" stroke-width="1.5" fill="none"/>
<path d="M575.5 306.5 v7 M580.5 306.5 v7" stroke="#000" stroke-width="1.5" fill="none"/>
<path d="M497.5 332.5 v7 M502.5 332.5 v7" stroke="#000" stroke-width="1.5" fill="none"/>
<path d="M523.5 332.5 v7 M528.5 332.5 v7" stroke="#000" stroke-width="1.5" fill="none"/>
<path d="M549.5 332.5 v7 M554.5 332.5 v7" stroke="#000" stroke-width="1.5" fill="none"/>
<path d="M575.5 332.5 v7 M580.5 332.5 v7" stroke="#000" stroke-width="1.5" fill="none"/>
<path d="M497.5 358.5 v7 M502.5 358.5 v7" stroke="#000" stroke-width="1.5" fill="none"/>
<path d="M523.5 358.5 v7 M528.5 358.5 v7" stroke="#000" stroke-width="1.5" fill="none"/>
<path d="M549.5 358.5 v7 M554.5 358.5 v7" stroke="#000" stroke-width="1.5" fill="none"/>
<path d="M575.5 358.5 v7 M580.5 358.5 v7" stroke="#000" stroke-width="1.5" fill="none"/>
<path d="M387 307 l3 6 l3 -6" stroke="#000" stroke-width="1.5" fill="none"/>
<path d="M413 307 l3 6 l3 -6" stroke="#000" stroke-width="1.5" fill="none"/>
<path d="M439 307 l3 6 l3 -6" stroke="#000" stroke-width="1.5" fill="none"/>
<path d="M465 307 l3 6 l3 -6" stroke="#000" stroke-width="1.5" fill="none"/>
<path d="M387 333 l3 6 l3 -6" stroke="#000" stroke-width="1.5" fill="none"/>
<path d="M413 333 l3 6 l3 -6" stroke="#000" stroke-width="1.5" fill="none"/>
<path d="M439 333 l3 6 l3 -6" stroke="#000" stroke-width="1.5" fill="none"/>
<path d="M465 333 l3 6 l3 -6" stroke="#000" stroke-width="1.5" fill="none"/>
<path d="M387 359 l3 6 l3 -6" stroke="#000" stroke-width="1.5" fill="none"/>
<path d="M413 359 l3 6 l3 -6" stroke="#000" stroke-width="1.5" fill="none"/>
<path d="M439 359 l3 6 l3 -6" stroke="#000" stroke-width="1.5" fill="none"/>
<path d="M465 359 l3 6 l3 -6" stroke="#000" stroke-width="1.5" fill="none"/>
<circle cx="200" cy="155" r="6.5" fill="#fff" stroke="#000" stroke-width="1.77"/><circle cx="200" cy="155" r="3.2" fill="none" stroke="#000" stroke-width="1.5"/>
<circle cx="300" cy="155" r="7" fill="#fff" stroke="#000" stroke-width="1.63"/><text x="300" y="158.6" font-size="10" text-anchor="middle" font-weight="normal" font-family="'Hiragino Sans','Hiragino Kaku Gothic ProN','Yu Gothic','Meiryo',sans-serif" fill="#000">文</text>
<circle cx="420" cy="155" r="7" fill="#fff" stroke="#000" stroke-width="1.63"/><text x="420" y="158.96" font-size="11" text-anchor="middle" font-weight="normal" font-family="'Hiragino Sans','Hiragino Kaku Gothic ProN','Yu Gothic','Meiryo',sans-serif" fill="#000">⊗</text>
<circle cx="200" cy="245" r="7" fill="#fff" stroke="#000" stroke-width="1.63"/><text x="200" y="248.42" font-size="9.5" text-anchor="middle" font-weight="normal" font-family="'Hiragino Sans','Hiragino Kaku Gothic ProN','Yu Gothic','Meiryo',sans-serif" fill="#000">〒</text>
<circle cx="300" cy="245" r="7" fill="#fff" stroke="#000" stroke-width="1.63"/><text x="300" y="248.42" font-size="9.5" text-anchor="middle" font-weight="normal" font-family="'Hiragino Sans','Hiragino Kaku Gothic ProN','Yu Gothic','Meiryo',sans-serif" fill="#000">田</text>
<circle cx="420" cy="245" r="6" fill="#fff" stroke="#000" stroke-width="1.63"/><text x="420" y="248.24" font-size="9" text-anchor="middle" font-weight="normal" font-family="'Hiragino Sans','Hiragino Kaku Gothic ProN','Yu Gothic','Meiryo',sans-serif" fill="#000">X</text>
<path d="M524.5 151 h11 M525.5 154 h9 M526.5 151 v8 M533.5 151 v8" stroke="#000" stroke-width="1.77" fill="none"/>
<circle cx="530" cy="245" r="7" fill="#fff" stroke="#000" stroke-width="1.63"/><text x="530" y="248.96" font-size="11" text-anchor="middle" font-weight="normal" font-family="'Hiragino Sans','Hiragino Kaku Gothic ProN','Yu Gothic','Meiryo',sans-serif" fill="#000">卍</text>
<circle cx="200" cy="335" r="7" fill="#fff" stroke="#000" stroke-width="1.63"/><text x="200" y="338.6" font-size="10" text-anchor="middle" font-weight="normal" font-family="'Hiragino Sans','Hiragino Kaku Gothic ProN','Yu Gothic','Meiryo',sans-serif" fill="#000">✿</text>
<circle cx="300" cy="335" r="7" fill="#fff" stroke="#000" stroke-width="1.63"/><text x="300" y="338.6" font-size="10" text-anchor="middle" font-weight="normal" font-family="'Hiragino Sans','Hiragino Kaku Gothic ProN','Yu Gothic','Meiryo',sans-serif" fill="#000">血</text>
<circle cx="300" cy="420" r="7" fill="#fff" stroke="#000" stroke-width="1.63"/><text x="300" y="423.6" font-size="10" text-anchor="middle" font-weight="normal" font-family="'Hiragino Sans','Hiragino Kaku Gothic ProN','Yu Gothic','Meiryo',sans-serif" fill="#000">介</text>
<circle cx="560" cy="418" r="2.6" fill="none" stroke="#000" stroke-width="1.5"/><path d="M560 420.6 v3" stroke="#000" stroke-width="1.5"/>
<rect x="86" y="241" width="8" height="8" fill="none" stroke="#000" stroke-width="1.63"/><circle cx="90" cy="245" r="1.2" fill="#000" stroke="#000" stroke-width="1.07"/><text x="97" y="249" font-size="11" text-anchor="start" font-weight="normal" font-family="'Hiragino Sans','Hiragino Kaku Gothic ProN','Yu Gothic','Meiryo',sans-serif" fill="#000">17.3</text>
<path d="M90 150 l4.5 8 h-9 z" fill="none" stroke="#000" stroke-width="1.63"/><text x="97" y="159" font-size="11" text-anchor="start" font-weight="normal" font-family="'Hiragino Sans','Hiragino Kaku Gothic ProN','Yu Gothic','Meiryo',sans-serif" fill="#000">17.3</text>
<path d="M60 110 L600 110" stroke="#000" stroke-width="2.99" fill="none"/><path d="M60 200 L600 200" stroke="#000" stroke-width="2.99" fill="none"/><path d="M60 290 L600 290" stroke="#000" stroke-width="2.99" fill="none"/><path d="M60 380 L600 380" stroke="#000" stroke-width="2.99" fill="none"/><path d="M120 50 L120 430" stroke="#000" stroke-width="2.99" fill="none"/><path d="M240 50 L240 430" stroke="#000" stroke-width="2.99" fill="none"/><path d="M360 50 L360 430" stroke="#000" stroke-width="2.99" fill="none"/><path d="M480 50 L480 430" stroke="#000" stroke-width="2.99" fill="none"/><path d="M570 50 L570 430" stroke="#000" stroke-width="2.99" fill="none"/><path d="M150 50 L150 430" stroke="#000" stroke-width="4.61" fill="none"/><path d="M150 50 L150 430" stroke="#000" stroke-width="1.9" fill="none" stroke-dasharray="10 10"/>
</g>
<rect x="40" y="30" width="580" height="420" fill="none" stroke="#000" stroke-width="2.17"/>
<circle cx="200" cy="155" r="8.5" fill="#fff" stroke="#000" stroke-width="2.45"/><text x="200" y="159.5" font-size="12.5" text-anchor="middle" font-weight="bold" font-family="'Hiragino Sans','Hiragino Kaku Gothic ProN','Yu Gothic','Meiryo',sans-serif" fill="#000">ア</text>
<circle cx="300" cy="245" r="8.5" fill="#fff" stroke="#000" stroke-width="2.45"/><text x="300" y="249.5" font-size="12.5" text-anchor="middle" font-weight="bold" font-family="'Hiragino Sans','Hiragino Kaku Gothic ProN','Yu Gothic','Meiryo',sans-serif" fill="#000">イ</text>
<circle cx="420" cy="245" r="8.5" fill="#fff" stroke="#000" stroke-width="2.45"/><text x="420" y="249.5" font-size="12.5" text-anchor="middle" font-weight="bold" font-family="'Hiragino Sans','Hiragino Kaku Gothic ProN','Yu Gothic','Meiryo',sans-serif" fill="#000">ウ</text>
<circle cx="530" cy="245" r="8.5" fill="#fff" stroke="#000" stroke-width="2.45"/><text x="530" y="249.5" font-size="12.5" text-anchor="middle" font-weight="bold" font-family="'Hiragino Sans','Hiragino Kaku Gothic ProN','Yu Gothic','Meiryo',sans-serif" fill="#000">エ</text>
<circle cx="300" cy="335" r="8.5" fill="#fff" stroke="#000" stroke-width="2.45"/><text x="300" y="339.5" font-size="12.5" text-anchor="middle" font-weight="bold" font-family="'Hiragino Sans','Hiragino Kaku Gothic ProN','Yu Gothic','Meiryo',sans-serif" fill="#000">オ</text>
<circle cx="200" cy="335" r="8.5" fill="#fff" stroke="#000" stroke-width="2.45"/><text x="200" y="339.5" font-size="12.5" text-anchor="middle" font-weight="bold" font-family="'Hiragino Sans','Hiragino Kaku Gothic ProN','Yu Gothic','Meiryo',sans-serif" fill="#000">カ</text>
<g><path d="M655 60 L648 100 L655 92 L662 100 Z" fill="#000"/><path d="M655 60 v40" stroke="#000" stroke-width="1.36"/><text x="655" y="52" font-size="14" text-anchor="middle" font-weight="bold" font-family="'Hiragino Sans','Hiragino Kaku Gothic ProN','Yu Gothic','Meiryo',sans-serif" fill="#000">N</text></g>
<rect x="430" y="478" width="145" height="9" fill="#fff" stroke="#000" stroke-width="1.63"/>
<rect x="430" y="478" width="72.5" height="9" fill="#000" stroke="#000" stroke-width="0"/>
<text x="430" y="502" font-size="11" text-anchor="middle" font-weight="normal" font-family="'Hiragino Sans','Hiragino Kaku Gothic ProN','Yu Gothic','Meiryo',sans-serif" fill="#000">0</text>
<text x="502.5" y="502" font-size="11" text-anchor="middle" font-weight="normal" font-family="'Hiragino Sans','Hiragino Kaku Gothic ProN','Yu Gothic','Meiryo',sans-serif" fill="#000">500</text>
<text x="575" y="502" font-size="11" text-anchor="middle" font-weight="normal" font-family="'Hiragino Sans','Hiragino Kaku Gothic ProN','Yu Gothic','Meiryo',sans-serif" fill="#000">1000m</text>
<text x="430" y="471" font-size="12" text-anchor="start" font-weight="normal" font-family="'Hiragino Sans','Hiragino Kaku Gothic ProN','Yu Gothic','Meiryo',sans-serif" fill="#000">2万5千分の1</text>
<rect x="46" y="468" width="336" height="47" fill="none" stroke="#000" stroke-width="1.36"/>
<text x="56" y="485" font-size="12" text-anchor="start" font-weight="bold" font-family="'Hiragino Sans','Hiragino Kaku Gothic ProN','Yu Gothic','Meiryo',sans-serif" fill="#000">凡例</text>
<path d="M58 503 L82 503" stroke="#000" stroke-width="3.26" fill="none"/>
<text x="88" y="506" font-size="11" text-anchor="start" font-weight="normal" font-family="'Hiragino Sans','Hiragino Kaku Gothic ProN','Yu Gothic','Meiryo',sans-serif" fill="#000">道路</text>
<path d="M226 503 L250 503" stroke="#000" stroke-width="1.07" fill="none"/>
<text x="256" y="506" font-size="11" text-anchor="start" font-weight="normal" font-family="'Hiragino Sans','Hiragino Kaku Gothic ProN','Yu Gothic','Meiryo',sans-serif" fill="#000">鉄道（破線を重ねた線）</text>
<text x="40" y="606" font-size="11" text-anchor="start" font-weight="normal" font-family="'Hiragino Sans','Hiragino Kaku Gothic ProN','Yu Gothic','Meiryo',sans-serif" fill="#000">※ 訓練用に作成した模式地形図であり、実在の地域ではない。</text>
<defs><clipPath id="frame"><rect x="40" y="30" width="580" height="420"/></clipPath></defs>
</svg>
