<svg xmlns="http://www.w3.org/2000/svg" viewBox="0 0 720 390" width="720" height="390" role="img" aria-label="架空の4か国の一次エネルギー消費の内訳（％）"><defs>
 <pattern id="pDiag" width="8" height="8" patternUnits="userSpaceOnUse">
  <rect width="8" height="8" fill="#fff"/><path d="M0 8 L8 0" stroke="#000" stroke-width="1.4"/></pattern>
 <pattern id="pDiag2" width="8" height="8" patternUnits="userSpaceOnUse">
  <rect width="8" height="8" fill="#fff"/><path d="M0 0 L8 8" stroke="#000" stroke-width="1.4"/></pattern>
 <pattern id="pDot" width="8" height="8" patternUnits="userSpaceOnUse">
  <rect width="8" height="8" fill="#fff"/><circle cx="2" cy="2" r="1.3" fill="#000"/>
  <circle cx="6" cy="6" r="1.3" fill="#000"/></pattern>
 <pattern id="pDotFine" width="5" height="5" patternUnits="userSpaceOnUse">
  <rect width="5" height="5" fill="#fff"/><circle cx="1.4" cy="1.4" r="0.9" fill="#000"/></pattern>
 <pattern id="pGrid" width="8" height="8" patternUnits="userSpaceOnUse">
  <rect width="8" height="8" fill="#fff"/>
  <path d="M0 4 H8 M4 0 V8" stroke="#000" stroke-width="0.9"/></pattern>
 <pattern id="pWave" width="10" height="8" patternUnits="userSpaceOnUse">
  <rect width="10" height="8" fill="#fff"/>
  <path d="M0 5 q2.5 -3 5 0 t5 0" stroke="#000" stroke-width="0.9" fill="none"/></pattern>
</defs><rect width="720" height="390" fill="#fff"/>
<text x="20" y="26" font-size="16" text-anchor="start" font-weight="bold" font-family="'Hiragino Sans','Hiragino Kaku Gothic ProN','Yu Gothic','Meiryo',sans-serif" fill="#000">架空の4か国の一次エネルギー消費の内訳（％）</text>
<text x="86" y="80" font-size="14" text-anchor="end" font-weight="bold" font-family="'Hiragino Sans','Hiragino Kaku Gothic ProN','Yu Gothic','Meiryo',sans-serif" fill="#000">カ国</text>
<defs><clipPath id="hc122"><rect x="100" y="58" width="367.2" height="32" fill="#fff" stroke="none"/></clipPath></defs><rect x="100" y="58" width="367.2" height="32" fill="#fff" stroke="none"/><g clip-path="url(#hc122)"><path d="M68 90 L100 58" stroke="#000" stroke-width="1.1" fill="none"/><path d="M75 90 L107 58" stroke="#000" stroke-width="1.1" fill="none"/><path d="M82 90 L114 58" stroke="#000" stroke-width="1.1" fill="none"/><path d="M89 90 L121 58" stroke="#000" stroke-width="1.1" fill="none"/><path d="M96 90 L128 58" stroke="#000" stroke-width="1.1" fill="none"/><path d="M103 90 L135 58" stroke="#000" stroke-width="1.1" fill="none"/><path d="M110 90 L142 58" stroke="#000" stroke-width="1.1" fill="none"/><path d="M117 90 L149 58" stroke="#000" stroke-width="1.1" fill="none"/><path d="M124 90 L156 58" stroke="#000" stroke-width="1.1" fill="none"/><path d="M131 90 L163 58" stroke="#000" stroke-width="1.1" fill="none"/><path d="M138 90 L170 58" stroke="#000" stroke-width="1.1" fill="none"/><path d="M145 90 L177 58" stroke="#000" stroke-width="1.1" fill="none"/><path d="M152 90 L184 58" stroke="#000" stroke-width="1.1" fill="none"/><path d="M159 90 L191 58" stroke="#000" stroke-width="1.1" fill="none"/><path d="M166 90 L198 58" stroke="#000" stroke-width="1.1" fill="none"/><path d="M173 90 L205 58" stroke="#000" stroke-width="1.1" fill="none"/><path d="M180 90 L212 58" stroke="#000" stroke-width="1.1" fill="none"/><path d="M187 90 L219 58" stroke="#000" stroke-width="1.1" fill="none"/><path d="M194 90 L226 58" stroke="#000" stroke-width="1.1" fill="none"/><path d="M201 90 L233 58" stroke="#000" stroke-width="1.1" fill="none"/><path d="M208 90 L240 58" stroke="#000" stroke-width="1.1" fill="none"/><path d="M215 90 L247 58" stroke="#000" stroke-width="1.1" fill="none"/><path d="M222 90 L254 58" stroke="#000" stroke-width="1.1" fill="none"/><path d="M229 90 L261 58" stroke="#000" stroke-width="1.1" fill="none"/><path d="M236 90 L268 58" stroke="#000" stroke-width="1.1" fill="none"/><path d="M243 90 L275 58" stroke="#000" stroke-width="1.1" fill="none"/><path d="M250 90 L282 58" stroke="#000" stroke-width="1.1" fill="none"/><path d="M257 90 L289 58" stroke="#000" stroke-width="1.1" fill="none"/><path d="M264 90 L296 58" stroke="#000" stroke-width="1.1" fill="none"/><path d="M271 90 L303 58" stroke="#000" stroke-width="1.1" fill="none"/><path d="M278 90 L310 58" stroke="#000" stroke-width="1.1" fill="none"/><path d="M285 90 L317 58" stroke="#000" stroke-width="1.1" fill="none"/><path d="M292 90 L324 58" stroke="#000" stroke-width="1.1" fill="none"/><path d="M299 90 L331 58" stroke="#000" stroke-width="1.1" fill="none"/><path d="M306 90 L338 58" stroke="#000" stroke-width="1.1" fill="none"/><path d="M313 90 L345 58" stroke="#000" stroke-width="1.1" fill="none"/><path d="M320 90 L352 58" stroke="#000" stroke-width="1.1" fill="none"/><path d="M327 90 L359 58" stroke="#000" stroke-width="1.1" fill="none"/><path d="M334 90 L366 58" stroke="#000" stroke-width="1.1" fill="none"/><path d="M341 90 L373 58" stroke="#000" stroke-width="1.1" fill="none"/><path d="M348 90 L380 58" stroke="#000" stroke-width="1.1" fill="none"/><path d="M355 90 L387 58" stroke="#000" stroke-width="1.1" fill="none"/><path d="M362 90 L394 58" stroke="#000" stroke-width="1.1" fill="none"/><path d="M369 90 L401 58" stroke="#000" stroke-width="1.1" fill="none"/><path d="M376 90 L408 58" stroke="#000" stroke-width="1.1" fill="none"/><path d="M383 90 L415 58" stroke="#000" stroke-width="1.1" fill="none"/><path d="M390 90 L422 58" stroke="#000" stroke-width="1.1" fill="none"/><path d="M397 90 L429 58" stroke="#000" stroke-width="1.1" fill="none"/><path d="M404 90 L436 58" stroke="#000" stroke-width="1.1" fill="none"/><path d="M411 90 L443 58" stroke="#000" stroke-width="1.1" fill="none"/><path d="M418 90 L450 58" stroke="#000" stroke-width="1.1" fill="none"/><path d="M425 90 L457 58" stroke="#000" stroke-width="1.1" fill="none"/><path d="M432 90 L464 58" stroke="#000" stroke-width="1.1" fill="none"/><path d="M439 90 L471 58" stroke="#000" stroke-width="1.1" fill="none"/><path d="M446 90 L478 58" stroke="#000" stroke-width="1.1" fill="none"/><path d="M453 90 L485 58" stroke="#000" stroke-width="1.1" fill="none"/><path d="M460 90 L492 58" stroke="#000" stroke-width="1.1" fill="none"/><path d="M467 90 L499 58" stroke="#000" stroke-width="1.1" fill="none"/><path d="M474 90 L506 58" stroke="#000" stroke-width="1.1" fill="none"/></g><rect x="100" y="58" width="367.2" height="32" fill="none" stroke="#000" stroke-width="1.1"/>
<rect x="268.6" y="66" width="30" height="15" fill="#fff" stroke="#000" stroke-width="0"/>
<text x="283.6" y="78" font-size="12" text-anchor="middle" font-weight="bold" font-family="'Hiragino Sans','Hiragino Kaku Gothic ProN','Yu Gothic','Meiryo',sans-serif" fill="#000">68</text>
<rect x="467.2" y="58" width="64.8" height="32" fill="#000" stroke="#000" stroke-width="1.1"/>
<rect x="484.6" y="66" width="30" height="15" fill="#fff" stroke="#000" stroke-width="0"/>
<text x="499.6" y="78" font-size="12" text-anchor="middle" font-weight="bold" font-family="'Hiragino Sans','Hiragino Kaku Gothic ProN','Yu Gothic','Meiryo',sans-serif" fill="#000">12</text>
<defs><clipPath id="hc123"><rect x="532" y="58" width="43.2" height="32" fill="#fff" stroke="none"/></clipPath></defs><rect x="532" y="58" width="43.2" height="32" fill="#fff" stroke="none"/><g clip-path="url(#hc123)"><circle cx="532" cy="62" r="1.3" fill="#000" stroke="#000" stroke-width="0"/><circle cx="540" cy="62" r="1.3" fill="#000" stroke="#000" stroke-width="0"/><circle cx="548" cy="62" r="1.3" fill="#000" stroke="#000" stroke-width="0"/><circle cx="556" cy="62" r="1.3" fill="#000" stroke="#000" stroke-width="0"/><circle cx="564" cy="62" r="1.3" fill="#000" stroke="#000" stroke-width="0"/><circle cx="572" cy="62" r="1.3" fill="#000" stroke="#000" stroke-width="0"/><circle cx="580" cy="62" r="1.3" fill="#000" stroke="#000" stroke-width="0"/><circle cx="536" cy="70" r="1.3" fill="#000" stroke="#000" stroke-width="0"/><circle cx="544" cy="70" r="1.3" fill="#000" stroke="#000" stroke-width="0"/><circle cx="552" cy="70" r="1.3" fill="#000" stroke="#000" stroke-width="0"/><circle cx="560" cy="70" r="1.3" fill="#000" stroke="#000" stroke-width="0"/><circle cx="568" cy="70" r="1.3" fill="#000" stroke="#000" stroke-width="0"/><circle cx="576" cy="70" r="1.3" fill="#000" stroke="#000" stroke-width="0"/><circle cx="532" cy="78" r="1.3" fill="#000" stroke="#000" stroke-width="0"/><circle cx="540" cy="78" r="1.3" fill="#000" stroke="#000" stroke-width="0"/><circle cx="548" cy="78" r="1.3" fill="#000" stroke="#000" stroke-width="0"/><circle cx="556" cy="78" r="1.3" fill="#000" stroke="#000" stroke-width="0"/><circle cx="564" cy="78" r="1.3" fill="#000" stroke="#000" stroke-width="0"/><circle cx="572" cy="78" r="1.3" fill="#000" stroke="#000" stroke-width="0"/><circle cx="580" cy="78" r="1.3" fill="#000" stroke="#000" stroke-width="0"/><circle cx="536" cy="86" r="1.3" fill="#000" stroke="#000" stroke-width="0"/><circle cx="544" cy="86" r="1.3" fill="#000" stroke="#000" stroke-width="0"/><circle cx="552" cy="86" r="1.3" fill="#000" stroke="#000" stroke-width="0"/><circle cx="560" cy="86" r="1.3" fill="#000" stroke="#000" stroke-width="0"/><circle cx="568" cy="86" r="1.3" fill="#000" stroke="#000" stroke-width="0"/><circle cx="576" cy="86" r="1.3" fill="#000" stroke="#000" stroke-width="0"/><circle cx="532" cy="94" r="1.3" fill="#000" stroke="#000" stroke-width="0"/><circle cx="540" cy="94" r="1.3" fill="#000" stroke="#000" stroke-width="0"/><circle cx="548" cy="94" r="1.3" fill="#000" stroke="#000" stroke-width="0"/><circle cx="556" cy="94" r="1.3" fill="#000" stroke="#000" stroke-width="0"/><circle cx="564" cy="94" r="1.3" fill="#000" stroke="#000" stroke-width="0"/><circle cx="572" cy="94" r="1.3" fill="#000" stroke="#000" stroke-width="0"/><circle cx="580" cy="94" r="1.3" fill="#000" stroke="#000" stroke-width="0"/></g><rect x="532" y="58" width="43.2" height="32" fill="none" stroke="#000" stroke-width="1.1"/>
<rect x="538.6" y="66" width="30" height="15" fill="#fff" stroke="#000" stroke-width="0"/>
<text x="553.6" y="78" font-size="12" text-anchor="middle" font-weight="bold" font-family="'Hiragino Sans','Hiragino Kaku Gothic ProN','Yu Gothic','Meiryo',sans-serif" fill="#000">8</text>
<rect x="575.2" y="58" width="64.8" height="32" fill="#fff" stroke="#000" stroke-width="1.1"/>
<rect x="592.6" y="66" width="30" height="15" fill="#fff" stroke="#000" stroke-width="0"/>
<text x="607.6" y="78" font-size="12" text-anchor="middle" font-weight="bold" font-family="'Hiragino Sans','Hiragino Kaku Gothic ProN','Yu Gothic','Meiryo',sans-serif" fill="#000">12</text>
<text x="100" y="106" font-size="10" text-anchor="middle" font-weight="normal" font-family="'Hiragino Sans','Hiragino Kaku Gothic ProN','Yu Gothic','Meiryo',sans-serif" fill="#000">0</text>
<text x="640" y="106" font-size="10" text-anchor="middle" font-weight="normal" font-family="'Hiragino Sans','Hiragino Kaku Gothic ProN','Yu Gothic','Meiryo',sans-serif" fill="#000">100</text>
<text x="86" y="142" font-size="14" text-anchor="end" font-weight="bold" font-family="'Hiragino Sans','Hiragino Kaku Gothic ProN','Yu Gothic','Meiryo',sans-serif" fill="#000">キ国</text>
<defs><clipPath id="hc124"><rect x="100" y="120" width="32.4" height="32" fill="#fff" stroke="none"/></clipPath></defs><rect x="100" y="120" width="32.4" height="32" fill="#fff" stroke="none"/><g clip-path="url(#hc124)"><path d="M68 152 L100 120" stroke="#000" stroke-width="1.1" fill="none"/><path d="M75 152 L107 120" stroke="#000" stroke-width="1.1" fill="none"/><path d="M82 152 L114 120" stroke="#000" stroke-width="1.1" fill="none"/><path d="M89 152 L121 120" stroke="#000" stroke-width="1.1" fill="none"/><path d="M96 152 L128 120" stroke="#000" stroke-width="1.1" fill="none"/><path d="M103 152 L135 120" stroke="#000" stroke-width="1.1" fill="none"/><path d="M110 152 L142 120" stroke="#000" stroke-width="1.1" fill="none"/><path d="M117 152 L149 120" stroke="#000" stroke-width="1.1" fill="none"/><path d="M124 152 L156 120" stroke="#000" stroke-width="1.1" fill="none"/><path d="M131 152 L163 120" stroke="#000" stroke-width="1.1" fill="none"/><path d="M138 152 L170 120" stroke="#000" stroke-width="1.1" fill="none"/></g><rect x="100" y="120" width="32.4" height="32" fill="none" stroke="#000" stroke-width="1.1"/>
<rect x="132.4" y="120" width="183.6" height="32" fill="#000" stroke="#000" stroke-width="1.1"/>
<rect x="209.2" y="128" width="30" height="15" fill="#fff" stroke="#000" stroke-width="0"/>
<text x="224.2" y="140" font-size="12" text-anchor="middle" font-weight="bold" font-family="'Hiragino Sans','Hiragino Kaku Gothic ProN','Yu Gothic','Meiryo',sans-serif" fill="#000">34</text>
<defs><clipPath id="hc125"><rect x="316" y="120" width="248.4" height="32" fill="#fff" stroke="none"/></clipPath></defs><rect x="316" y="120" width="248.4" height="32" fill="#fff" stroke="none"/><g clip-path="url(#hc125)"><circle cx="316" cy="124" r="1.3" fill="#000" stroke="#000" stroke-width="0"/><circle cx="324" cy="124" r="1.3" fill="#000" stroke="#000" stroke-width="0"/><circle cx="332" cy="124" r="1.3" fill="#000" stroke="#000" stroke-width="0"/><circle cx="340" cy="124" r="1.3" fill="#000" stroke="#000" stroke-width="0"/><circle cx="348" cy="124" r="1.3" fill="#000" stroke="#000" stroke-width="0"/><circle cx="356" cy="124" r="1.3" fill="#000" stroke="#000" stroke-width="0"/><circle cx="364" cy="124" r="1.3" fill="#000" stroke="#000" stroke-width="0"/><circle cx="372" cy="124" r="1.3" fill="#000" stroke="#000" stroke-width="0"/><circle cx="380" cy="124" r="1.3" fill="#000" stroke="#000" stroke-width="0"/><circle cx="388" cy="124" r="1.3" fill="#000" stroke="#000" stroke-width="0"/><circle cx="396" cy="124" r="1.3" fill="#000" stroke="#000" stroke-width="0"/><circle cx="404" cy="124" r="1.3" fill="#000" stroke="#000" stroke-width="0"/><circle cx="412" cy="124" r="1.3" fill="#000" stroke="#000" stroke-width="0"/><circle cx="420" cy="124" r="1.3" fill="#000" stroke="#000" stroke-width="0"/><circle cx="428" cy="124" r="1.3" fill="#000" stroke="#000" stroke-width="0"/><circle cx="436" cy="124" r="1.3" fill="#000" stroke="#000" stroke-width="0"/><circle cx="444" cy="124" r="1.3" fill="#000" stroke="#000" stroke-width="0"/><circle cx="452" cy="124" r="1.3" fill="#000" stroke="#000" stroke-width="0"/><circle cx="460" cy="124" r="1.3" fill="#000" stroke="#000" stroke-width="0"/><circle cx="468" cy="124" r="1.3" fill="#000" stroke="#000" stroke-width="0"/><circle cx="476" cy="124" r="1.3" fill="#000" stroke="#000" stroke-width="0"/><circle cx="484" cy="124" r="1.3" fill="#000" stroke="#000" stroke-width="0"/><circle cx="492" cy="124" r="1.3" fill="#000" stroke="#000" stroke-width="0"/><circle cx="500" cy="124" r="1.3" fill="#000" stroke="#000" stroke-width="0"/><circle cx="508" cy="124" r="1.3" fill="#000" stroke="#000" stroke-width="0"/><circle cx="516" cy="124" r="1.3" fill="#000" stroke="#000" stroke-width="0"/><circle cx="524" cy="124" r="1.3" fill="#000" stroke="#000" stroke-width="0"/><circle cx="532" cy="124" r="1.3" fill="#000" stroke="#000" stroke-width="0"/><circle cx="540" cy="124" r="1.3" fill="#000" stroke="#000" stroke-width="0"/><circle cx="548" cy="124" r="1.3" fill="#000" stroke="#000" stroke-width="0"/><circle cx="556" cy="124" r="1.3" fill="#000" stroke="#000" stroke-width="0"/><circle cx="564" cy="124" r="1.3" fill="#000" stroke="#000" stroke-width="0"/><circle cx="572" cy="124" r="1.3" fill="#000" stroke="#000" stroke-width="0"/><circle cx="320" cy="132" r="1.3" fill="#000" stroke="#000" stroke-width="0"/><circle cx="328" cy="132" r="1.3" fill="#000" stroke="#000" stroke-width="0"/><circle cx="336" cy="132" r="1.3" fill="#000" stroke="#000" stroke-width="0"/><circle cx="344" cy="132" r="1.3" fill="#000" stroke="#000" stroke-width="0"/><circle cx="352" cy="132" r="1.3" fill="#000" stroke="#000" stroke-width="0"/><circle cx="360" cy="132" r="1.3" fill="#000" stroke="#000" stroke-width="0"/><circle cx="368" cy="132" r="1.3" fill="#000" stroke="#000" stroke-width="0"/><circle cx="376" cy="132" r="1.3" fill="#000" stroke="#000" stroke-width="0"/><circle cx="384" cy="132" r="1.3" fill="#000" stroke="#000" stroke-width="0"/><circle cx="392" cy="132" r="1.3" fill="#000" stroke="#000" stroke-width="0"/><circle cx="400" cy="132" r="1.3" fill="#000" stroke="#000" stroke-width="0"/><circle cx="408" cy="132" r="1.3" fill="#000" stroke="#000" stroke-width="0"/><circle cx="416" cy="132" r="1.3" fill="#000" stroke="#000" stroke-width="0"/><circle cx="424" cy="132" r="1.3" fill="#000" stroke="#000" stroke-width="0"/><circle cx="432" cy="132" r="1.3" fill="#000" stroke="#000" stroke-width="0"/><circle cx="440" cy="132" r="1.3" fill="#000" stroke="#000" stroke-width="0"/><circle cx="448" cy="132" r="1.3" fill="#000" stroke="#000" stroke-width="0"/><circle cx="456" cy="132" r="1.3" fill="#000" stroke="#000" stroke-width="0"/><circle cx="464" cy="132" r="1.3" fill="#000" stroke="#000" stroke-width="0"/><circle cx="472" cy="132" r="1.3" fill="#000" stroke="#000" stroke-width="0"/><circle cx="480" cy="132" r="1.3" fill="#000" stroke="#000" stroke-width="0"/><circle cx="488" cy="132" r="1.3" fill="#000" stroke="#000" stroke-width="0"/><circle cx="496" cy="132" r="1.3" fill="#000" stroke="#000" stroke-width="0"/><circle cx="504" cy="132" r="1.3" fill="#000" stroke="#000" stroke-width="0"/><circle cx="512" cy="132" r="1.3" fill="#000" stroke="#000" stroke-width="0"/><circle cx="520" cy="132" r="1.3" fill="#000" stroke="#000" stroke-width="0"/><circle cx="528" cy="132" r="1.3" fill="#000" stroke="#000" stroke-width="0"/><circle cx="536" cy="132" r="1.3" fill="#000" stroke="#000" stroke-width="0"/><circle cx="544" cy="132" r="1.3" fill="#000" stroke="#000" stroke-width="0"/><circle cx="552" cy="132" r="1.3" fill="#000" stroke="#000" stroke-width="0"/><circle cx="560" cy="132" r="1.3" fill="#000" stroke="#000" stroke-width="0"/><circle cx="568" cy="132" r="1.3" fill="#000" stroke="#000" stroke-width="0"/><circle cx="316" cy="140" r="1.3" fill="#000" stroke="#000" stroke-width="0"/><circle cx="324" cy="140" r="1.3" fill="#000" stroke="#000" stroke-width="0"/><circle cx="332" cy="140" r="1.3" fill="#000" stroke="#000" stroke-width="0"/><circle cx="340" cy="140" r="1.3" fill="#000" stroke="#000" stroke-width="0"/><circle cx="348" cy="140" r="1.3" fill="#000" stroke="#000" stroke-width="0"/><circle cx="356" cy="140" r="1.3" fill="#000" stroke="#000" stroke-width="0"/><circle cx="364" cy="140" r="1.3" fill="#000" stroke="#000" stroke-width="0"/><circle cx="372" cy="140" r="1.3" fill="#000" stroke="#000" stroke-width="0"/><circle cx="380" cy="140" r="1.3" fill="#000" stroke="#000" stroke-width="0"/><circle cx="388" cy="140" r="1.3" fill="#000" stroke="#000" stroke-width="0"/><circle cx="396" cy="140" r="1.3" fill="#000" stroke="#000" stroke-width="0"/><circle cx="404" cy="140" r="1.3" fill="#000" stroke="#000" stroke-width="0"/><circle cx="412" cy="140" r="1.3" fill="#000" stroke="#000" stroke-width="0"/><circle cx="420" cy="140" r="1.3" fill="#000" stroke="#000" stroke-width="0"/><circle cx="428" cy="140" r="1.3" fill="#000" stroke="#000" stroke-width="0"/><circle cx="436" cy="140" r="1.3" fill="#000" stroke="#000" stroke-width="0"/><circle cx="444" cy="140" r="1.3" fill="#000" stroke="#000" stroke-width="0"/><circle cx="452" cy="140" r="1.3" fill="#000" stroke="#000" stroke-width="0"/><circle cx="460" cy="140" r="1.3" fill="#000" stroke="#000" stroke-width="0"/><circle cx="468" cy="140" r="1.3" fill="#000" stroke="#000" stroke-width="0"/><circle cx="476" cy="140" r="1.3" fill="#000" stroke="#000" stroke-width="0"/><circle cx="484" cy="140" r="1.3" fill="#000" stroke="#000" stroke-width="0"/><circle cx="492" cy="140" r="1.3" fill="#000" stroke="#000" stroke-width="0"/><circle cx="500" cy="140" r="1.3" fill="#000" stroke="#000" stroke-width="0"/><circle cx="508" cy="140" r="1.3" fill="#000" stroke="#000" stroke-width="0"/><circle cx="516" cy="140" r="1.3" fill="#000" stroke="#000" stroke-width="0"/><circle cx="524" cy="140" r="1.3" fill="#000" stroke="#000" stroke-width="0"/><circle cx="532" cy="140" r="1.3" fill="#000" stroke="#000" stroke-width="0"/><circle cx="540" cy="140" r="1.3" fill="#000" stroke="#000" stroke-width="0"/><circle cx="548" cy="140" r="1.3" fill="#000" stroke="#000" stroke-width="0"/><circle cx="556" cy="140" r="1.3" fill="#000" stroke="#000" stroke-width="0"/><circle cx="564" cy="140" r="1.3" fill="#000" stroke="#000" stroke-width="0"/><circle cx="572" cy="140" r="1.3" fill="#000" stroke="#000" stroke-width="0"/><circle cx="320" cy="148" r="1.3" fill="#000" stroke="#000" stroke-width="0"/><circle cx="328" cy="148" r="1.3" fill="#000" stroke="#000" stroke-width="0"/><circle cx="336" cy="148" r="1.3" fill="#000" stroke="#000" stroke-width="0"/><circle cx="344" cy="148" r="1.3" fill="#000" stroke="#000" stroke-width="0"/><circle cx="352" cy="148" r="1.3" fill="#000" stroke="#000" stroke-width="0"/><circle cx="360" cy="148" r="1.3" fill="#000" stroke="#000" stroke-width="0"/><circle cx="368" cy="148" r="1.3" fill="#000" stroke="#000" stroke-width="0"/><circle cx="376" cy="148" r="1.3" fill="#000" stroke="#000" stroke-width="0"/><circle cx="384" cy="148" r="1.3" fill="#000" stroke="#000" stroke-width="0"/><circle cx="392" cy="148" r="1.3" fill="#000" stroke="#000" stroke-width="0"/><circle cx="400" cy="148" r="1.3" fill="#000" stroke="#000" stroke-width="0"/><circle cx="408" cy="148" r="1.3" fill="#000" stroke="#000" stroke-width="0"/><circle cx="416" cy="148" r="1.3" fill="#000" stroke="#000" stroke-width="0"/><circle cx="424" cy="148" r="1.3" fill="#000" stroke="#000" stroke-width="0"/><circle cx="432" cy="148" r="1.3" fill="#000" stroke="#000" stroke-width="0"/><circle cx="440" cy="148" r="1.3" fill="#000" stroke="#000" stroke-width="0"/><circle cx="448" cy="148" r="1.3" fill="#000" stroke="#000" stroke-width="0"/><circle cx="456" cy="148" r="1.3" fill="#000" stroke="#000" stroke-width="0"/><circle cx="464" cy="148" r="1.3" fill="#000" stroke="#000" stroke-width="0"/><circle cx="472" cy="148" r="1.3" fill="#000" stroke="#000" stroke-width="0"/><circle cx="480" cy="148" r="1.3" fill="#000" stroke="#000" stroke-width="0"/><circle cx="488" cy="148" r="1.3" fill="#000" stroke="#000" stroke-width="0"/><circle cx="496" cy="148" r="1.3" fill="#000" stroke="#000" stroke-width="0"/><circle cx="504" cy="148" r="1.3" fill="#000" stroke="#000" stroke-width="0"/><circle cx="512" cy="148" r="1.3" fill="#000" stroke="#000" stroke-width="0"/><circle cx="520" cy="148" r="1.3" fill="#000" stroke="#000" stroke-width="0"/><circle cx="528" cy="148" r="1.3" fill="#000" stroke="#000" stroke-width="0"/><circle cx="536" cy="148" r="1.3" fill="#000" stroke="#000" stroke-width="0"/><circle cx="544" cy="148" r="1.3" fill="#000" stroke="#000" stroke-width="0"/><circle cx="552" cy="148" r="1.3" fill="#000" stroke="#000" stroke-width="0"/><circle cx="560" cy="148" r="1.3" fill="#000" stroke="#000" stroke-width="0"/><circle cx="568" cy="148" r="1.3" fill="#000" stroke="#000" stroke-width="0"/><circle cx="316" cy="156" r="1.3" fill="#000" stroke="#000" stroke-width="0"/><circle cx="324" cy="156" r="1.3" fill="#000" stroke="#000" stroke-width="0"/><circle cx="332" cy="156" r="1.3" fill="#000" stroke="#000" stroke-width="0"/><circle cx="340" cy="156" r="1.3" fill="#000" stroke="#000" stroke-width="0"/><circle cx="348" cy="156" r="1.3" fill="#000" stroke="#000" stroke-width="0"/><circle cx="356" cy="156" r="1.3" fill="#000" stroke="#000" stroke-width="0"/><circle cx="364" cy="156" r="1.3" fill="#000" stroke="#000" stroke-width="0"/><circle cx="372" cy="156" r="1.3" fill="#000" stroke="#000" stroke-width="0"/><circle cx="380" cy="156" r="1.3" fill="#000" stroke="#000" stroke-width="0"/><circle cx="388" cy="156" r="1.3" fill="#000" stroke="#000" stroke-width="0"/><circle cx="396" cy="156" r="1.3" fill="#000" stroke="#000" stroke-width="0"/><circle cx="404" cy="156" r="1.3" fill="#000" stroke="#000" stroke-width="0"/><circle cx="412" cy="156" r="1.3" fill="#000" stroke="#000" stroke-width="0"/><circle cx="420" cy="156" r="1.3" fill="#000" stroke="#000" stroke-width="0"/><circle cx="428" cy="156" r="1.3" fill="#000" stroke="#000" stroke-width="0"/><circle cx="436" cy="156" r="1.3" fill="#000" stroke="#000" stroke-width="0"/><circle cx="444" cy="156" r="1.3" fill="#000" stroke="#000" stroke-width="0"/><circle cx="452" cy="156" r="1.3" fill="#000" stroke="#000" stroke-width="0"/><circle cx="460" cy="156" r="1.3" fill="#000" stroke="#000" stroke-width="0"/><circle cx="468" cy="156" r="1.3" fill="#000" stroke="#000" stroke-width="0"/><circle cx="476" cy="156" r="1.3" fill="#000" stroke="#000" stroke-width="0"/><circle cx="484" cy="156" r="1.3" fill="#000" stroke="#000" stroke-width="0"/><circle cx="492" cy="156" r="1.3" fill="#000" stroke="#000" stroke-width="0"/><circle cx="500" cy="156" r="1.3" fill="#000" stroke="#000" stroke-width="0"/><circle cx="508" cy="156" r="1.3" fill="#000" stroke="#000" stroke-width="0"/><circle cx="516" cy="156" r="1.3" fill="#000" stroke="#000" stroke-width="0"/><circle cx="524" cy="156" r="1.3" fill="#000" stroke="#000" stroke-width="0"/><circle cx="532" cy="156" r="1.3" fill="#000" stroke="#000" stroke-width="0"/><circle cx="540" cy="156" r="1.3" fill="#000" stroke="#000" stroke-width="0"/><circle cx="548" cy="156" r="1.3" fill="#000" stroke="#000" stroke-width="0"/><circle cx="556" cy="156" r="1.3" fill="#000" stroke="#000" stroke-width="0"/><circle cx="564" cy="156" r="1.3" fill="#000" stroke="#000" stroke-width="0"/><circle cx="572" cy="156" r="1.3" fill="#000" stroke="#000" stroke-width="0"/></g><rect x="316" y="120" width="248.4" height="32" fill="none" stroke="#000" stroke-width="1.1"/>
<rect x="425.2" y="128" width="30" height="15" fill="#fff" stroke="#000" stroke-width="0"/>
<text x="440.2" y="140" font-size="12" text-anchor="middle" font-weight="bold" font-family="'Hiragino Sans','Hiragino Kaku Gothic ProN','Yu Gothic','Meiryo',sans-serif" fill="#000">46</text>
<rect x="564.4" y="120" width="75.6" height="32" fill="#fff" stroke="#000" stroke-width="1.1"/>
<rect x="587.2" y="128" width="30" height="15" fill="#fff" stroke="#000" stroke-width="0"/>
<text x="602.2" y="140" font-size="12" text-anchor="middle" font-weight="bold" font-family="'Hiragino Sans','Hiragino Kaku Gothic ProN','Yu Gothic','Meiryo',sans-serif" fill="#000">14</text>
<text x="100" y="168" font-size="10" text-anchor="middle" font-weight="normal" font-family="'Hiragino Sans','Hiragino Kaku Gothic ProN','Yu Gothic','Meiryo',sans-serif" fill="#000">0</text>
<text x="640" y="168" font-size="10" text-anchor="middle" font-weight="normal" font-family="'Hiragino Sans','Hiragino Kaku Gothic ProN','Yu Gothic','Meiryo',sans-serif" fill="#000">100</text>
<text x="86" y="204" font-size="14" text-anchor="end" font-weight="bold" font-family="'Hiragino Sans','Hiragino Kaku Gothic ProN','Yu Gothic','Meiryo',sans-serif" fill="#000">ク国</text>
<defs><clipPath id="hc126"><rect x="100" y="182" width="118.8" height="32" fill="#fff" stroke="none"/></clipPath></defs><rect x="100" y="182" width="118.8" height="32" fill="#fff" stroke="none"/><g clip-path="url(#hc126)"><path d="M68 214 L100 182" stroke="#000" stroke-width="1.1" fill="none"/><path d="M75 214 L107 182" stroke="#000" stroke-width="1.1" fill="none"/><path d="M82 214 L114 182" stroke="#000" stroke-width="1.1" fill="none"/><path d="M89 214 L121 182" stroke="#000" stroke-width="1.1" fill="none"/><path d="M96 214 L128 182" stroke="#000" stroke-width="1.1" fill="none"/><path d="M103 214 L135 182" stroke="#000" stroke-width="1.1" fill="none"/><path d="M110 214 L142 182" stroke="#000" stroke-width="1.1" fill="none"/><path d="M117 214 L149 182" stroke="#000" stroke-width="1.1" fill="none"/><path d="M124 214 L156 182" stroke="#000" stroke-width="1.1" fill="none"/><path d="M131 214 L163 182" stroke="#000" stroke-width="1.1" fill="none"/><path d="M138 214 L170 182" stroke="#000" stroke-width="1.1" fill="none"/><path d="M145 214 L177 182" stroke="#000" stroke-width="1.1" fill="none"/><path d="M152 214 L184 182" stroke="#000" stroke-width="1.1" fill="none"/><path d="M159 214 L191 182" stroke="#000" stroke-width="1.1" fill="none"/><path d="M166 214 L198 182" stroke="#000" stroke-width="1.1" fill="none"/><path d="M173 214 L205 182" stroke="#000" stroke-width="1.1" fill="none"/><path d="M180 214 L212 182" stroke="#000" stroke-width="1.1" fill="none"/><path d="M187 214 L219 182" stroke="#000" stroke-width="1.1" fill="none"/><path d="M194 214 L226 182" stroke="#000" stroke-width="1.1" fill="none"/><path d="M201 214 L233 182" stroke="#000" stroke-width="1.1" fill="none"/><path d="M208 214 L240 182" stroke="#000" stroke-width="1.1" fill="none"/><path d="M215 214 L247 182" stroke="#000" stroke-width="1.1" fill="none"/><path d="M222 214 L254 182" stroke="#000" stroke-width="1.1" fill="none"/></g><rect x="100" y="182" width="118.8" height="32" fill="none" stroke="#000" stroke-width="1.1"/>
<rect x="144.4" y="190" width="30" height="15" fill="#fff" stroke="#000" stroke-width="0"/>
<text x="159.4" y="202" font-size="12" text-anchor="middle" font-weight="bold" font-family="'Hiragino Sans','Hiragino Kaku Gothic ProN','Yu Gothic','Meiryo',sans-serif" fill="#000">22</text>
<rect x="218.8" y="182" width="205.2" height="32" fill="#000" stroke="#000" stroke-width="1.1"/>
<rect x="306.4" y="190" width="30" height="15" fill="#fff" stroke="#000" stroke-width="0"/>
<text x="321.4" y="202" font-size="12" text-anchor="middle" font-weight="bold" font-family="'Hiragino Sans','Hiragino Kaku Gothic ProN','Yu Gothic','Meiryo',sans-serif" fill="#000">38</text>
<defs><clipPath id="hc127"><rect x="424" y="182" width="129.6" height="32" fill="#fff" stroke="none"/></clipPath></defs><rect x="424" y="182" width="129.6" height="32" fill="#fff" stroke="none"/><g clip-path="url(#hc127)"><circle cx="424" cy="186" r="1.3" fill="#000" stroke="#000" stroke-width="0"/><circle cx="432" cy="186" r="1.3" fill="#000" stroke="#000" stroke-width="0"/><circle cx="440" cy="186" r="1.3" fill="#000" stroke="#000" stroke-width="0"/><circle cx="448" cy="186" r="1.3" fill="#000" stroke="#000" stroke-width="0"/><circle cx="456" cy="186" r="1.3" fill="#000" stroke="#000" stroke-width="0"/><circle cx="464" cy="186" r="1.3" fill="#000" stroke="#000" stroke-width="0"/><circle cx="472" cy="186" r="1.3" fill="#000" stroke="#000" stroke-width="0"/><circle cx="480" cy="186" r="1.3" fill="#000" stroke="#000" stroke-width="0"/><circle cx="488" cy="186" r="1.3" fill="#000" stroke="#000" stroke-width="0"/><circle cx="496" cy="186" r="1.3" fill="#000" stroke="#000" stroke-width="0"/><circle cx="504" cy="186" r="1.3" fill="#000" stroke="#000" stroke-width="0"/><circle cx="512" cy="186" r="1.3" fill="#000" stroke="#000" stroke-width="0"/><circle cx="520" cy="186" r="1.3" fill="#000" stroke="#000" stroke-width="0"/><circle cx="528" cy="186" r="1.3" fill="#000" stroke="#000" stroke-width="0"/><circle cx="536" cy="186" r="1.3" fill="#000" stroke="#000" stroke-width="0"/><circle cx="544" cy="186" r="1.3" fill="#000" stroke="#000" stroke-width="0"/><circle cx="552" cy="186" r="1.3" fill="#000" stroke="#000" stroke-width="0"/><circle cx="560" cy="186" r="1.3" fill="#000" stroke="#000" stroke-width="0"/><circle cx="428" cy="194" r="1.3" fill="#000" stroke="#000" stroke-width="0"/><circle cx="436" cy="194" r="1.3" fill="#000" stroke="#000" stroke-width="0"/><circle cx="444" cy="194" r="1.3" fill="#000" stroke="#000" stroke-width="0"/><circle cx="452" cy="194" r="1.3" fill="#000" stroke="#000" stroke-width="0"/><circle cx="460" cy="194" r="1.3" fill="#000" stroke="#000" stroke-width="0"/><circle cx="468" cy="194" r="1.3" fill="#000" stroke="#000" stroke-width="0"/><circle cx="476" cy="194" r="1.3" fill="#000" stroke="#000" stroke-width="0"/><circle cx="484" cy="194" r="1.3" fill="#000" stroke="#000" stroke-width="0"/><circle cx="492" cy="194" r="1.3" fill="#000" stroke="#000" stroke-width="0"/><circle cx="500" cy="194" r="1.3" fill="#000" stroke="#000" stroke-width="0"/><circle cx="508" cy="194" r="1.3" fill="#000" stroke="#000" stroke-width="0"/><circle cx="516" cy="194" r="1.3" fill="#000" stroke="#000" stroke-width="0"/><circle cx="524" cy="194" r="1.3" fill="#000" stroke="#000" stroke-width="0"/><circle cx="532" cy="194" r="1.3" fill="#000" stroke="#000" stroke-width="0"/><circle cx="540" cy="194" r="1.3" fill="#000" stroke="#000" stroke-width="0"/><circle cx="548" cy="194" r="1.3" fill="#000" stroke="#000" stroke-width="0"/><circle cx="556" cy="194" r="1.3" fill="#000" stroke="#000" stroke-width="0"/><circle cx="424" cy="202" r="1.3" fill="#000" stroke="#000" stroke-width="0"/><circle cx="432" cy="202" r="1.3" fill="#000" stroke="#000" stroke-width="0"/><circle cx="440" cy="202" r="1.3" fill="#000" stroke="#000" stroke-width="0"/><circle cx="448" cy="202" r="1.3" fill="#000" stroke="#000" stroke-width="0"/><circle cx="456" cy="202" r="1.3" fill="#000" stroke="#000" stroke-width="0"/><circle cx="464" cy="202" r="1.3" fill="#000" stroke="#000" stroke-width="0"/><circle cx="472" cy="202" r="1.3" fill="#000" stroke="#000" stroke-width="0"/><circle cx="480" cy="202" r="1.3" fill="#000" stroke="#000" stroke-width="0"/><circle cx="488" cy="202" r="1.3" fill="#000" stroke="#000" stroke-width="0"/><circle cx="496" cy="202" r="1.3" fill="#000" stroke="#000" stroke-width="0"/><circle cx="504" cy="202" r="1.3" fill="#000" stroke="#000" stroke-width="0"/><circle cx="512" cy="202" r="1.3" fill="#000" stroke="#000" stroke-width="0"/><circle cx="520" cy="202" r="1.3" fill="#000" stroke="#000" stroke-width="0"/><circle cx="528" cy="202" r="1.3" fill="#000" stroke="#000" stroke-width="0"/><circle cx="536" cy="202" r="1.3" fill="#000" stroke="#000" stroke-width="0"/><circle cx="544" cy="202" r="1.3" fill="#000" stroke="#000" stroke-width="0"/><circle cx="552" cy="202" r="1.3" fill="#000" stroke="#000" stroke-width="0"/><circle cx="560" cy="202" r="1.3" fill="#000" stroke="#000" stroke-width="0"/><circle cx="428" cy="210" r="1.3" fill="#000" stroke="#000" stroke-width="0"/><circle cx="436" cy="210" r="1.3" fill="#000" stroke="#000" stroke-width="0"/><circle cx="444" cy="210" r="1.3" fill="#000" stroke="#000" stroke-width="0"/><circle cx="452" cy="210" r="1.3" fill="#000" stroke="#000" stroke-width="0"/><circle cx="460" cy="210" r="1.3" fill="#000" stroke="#000" stroke-width="0"/><circle cx="468" cy="210" r="1.3" fill="#000" stroke="#000" stroke-width="0"/><circle cx="476" cy="210" r="1.3" fill="#000" stroke="#000" stroke-width="0"/><circle cx="484" cy="210" r="1.3" fill="#000" stroke="#000" stroke-width="0"/><circle cx="492" cy="210" r="1.3" fill="#000" stroke="#000" stroke-width="0"/><circle cx="500" cy="210" r="1.3" fill="#000" stroke="#000" stroke-width="0"/><circle cx="508" cy="210" r="1.3" fill="#000" stroke="#000" stroke-width="0"/><circle cx="516" cy="210" r="1.3" fill="#000" stroke="#000" stroke-width="0"/><circle cx="524" cy="210" r="1.3" fill="#000" stroke="#000" stroke-width="0"/><circle cx="532" cy="210" r="1.3" fill="#000" stroke="#000" stroke-width="0"/><circle cx="540" cy="210" r="1.3" fill="#000" stroke="#000" stroke-width="0"/><circle cx="548" cy="210" r="1.3" fill="#000" stroke="#000" stroke-width="0"/><circle cx="556" cy="210" r="1.3" fill="#000" stroke="#000" stroke-width="0"/><circle cx="424" cy="218" r="1.3" fill="#000" stroke="#000" stroke-width="0"/><circle cx="432" cy="218" r="1.3" fill="#000" stroke="#000" stroke-width="0"/><circle cx="440" cy="218" r="1.3" fill="#000" stroke="#000" stroke-width="0"/><circle cx="448" cy="218" r="1.3" fill="#000" stroke="#000" stroke-width="0"/><circle cx="456" cy="218" r="1.3" fill="#000" stroke="#000" stroke-width="0"/><circle cx="464" cy="218" r="1.3" fill="#000" stroke="#000" stroke-width="0"/><circle cx="472" cy="218" r="1.3" fill="#000" stroke="#000" stroke-width="0"/><circle cx="480" cy="218" r="1.3" fill="#000" stroke="#000" stroke-width="0"/><circle cx="488" cy="218" r="1.3" fill="#000" stroke="#000" stroke-width="0"/><circle cx="496" cy="218" r="1.3" fill="#000" stroke="#000" stroke-width="0"/><circle cx="504" cy="218" r="1.3" fill="#000" stroke="#000" stroke-width="0"/><circle cx="512" cy="218" r="1.3" fill="#000" stroke="#000" stroke-width="0"/><circle cx="520" cy="218" r="1.3" fill="#000" stroke="#000" stroke-width="0"/><circle cx="528" cy="218" r="1.3" fill="#000" stroke="#000" stroke-width="0"/><circle cx="536" cy="218" r="1.3" fill="#000" stroke="#000" stroke-width="0"/><circle cx="544" cy="218" r="1.3" fill="#000" stroke="#000" stroke-width="0"/><circle cx="552" cy="218" r="1.3" fill="#000" stroke="#000" stroke-width="0"/><circle cx="560" cy="218" r="1.3" fill="#000" stroke="#000" stroke-width="0"/></g><rect x="424" y="182" width="129.6" height="32" fill="none" stroke="#000" stroke-width="1.1"/>
<rect x="473.8" y="190" width="30" height="15" fill="#fff" stroke="#000" stroke-width="0"/>
<text x="488.8" y="202" font-size="12" text-anchor="middle" font-weight="bold" font-family="'Hiragino Sans','Hiragino Kaku Gothic ProN','Yu Gothic','Meiryo',sans-serif" fill="#000">24</text>
<rect x="553.6" y="182" width="86.4" height="32" fill="#fff" stroke="#000" stroke-width="1.1"/>
<rect x="581.8" y="190" width="30" height="15" fill="#fff" stroke="#000" stroke-width="0"/>
<text x="596.8" y="202" font-size="12" text-anchor="middle" font-weight="bold" font-family="'Hiragino Sans','Hiragino Kaku Gothic ProN','Yu Gothic','Meiryo',sans-serif" fill="#000">16</text>
<text x="100" y="230" font-size="10" text-anchor="middle" font-weight="normal" font-family="'Hiragino Sans','Hiragino Kaku Gothic ProN','Yu Gothic','Meiryo',sans-serif" fill="#000">0</text>
<text x="640" y="230" font-size="10" text-anchor="middle" font-weight="normal" font-family="'Hiragino Sans','Hiragino Kaku Gothic ProN','Yu Gothic','Meiryo',sans-serif" fill="#000">100</text>
<text x="86" y="266" font-size="14" text-anchor="end" font-weight="bold" font-family="'Hiragino Sans','Hiragino Kaku Gothic ProN','Yu Gothic','Meiryo',sans-serif" fill="#000">ケ国</text>
<defs><clipPath id="hc128"><rect x="100" y="244" width="21.6" height="32" fill="#fff" stroke="none"/></clipPath></defs><rect x="100" y="244" width="21.6" height="32" fill="#fff" stroke="none"/><g clip-path="url(#hc128)"><path d="M68 276 L100 244" stroke="#000" stroke-width="1.1" fill="none"/><path d="M75 276 L107 244" stroke="#000" stroke-width="1.1" fill="none"/><path d="M82 276 L114 244" stroke="#000" stroke-width="1.1" fill="none"/><path d="M89 276 L121 244" stroke="#000" stroke-width="1.1" fill="none"/><path d="M96 276 L128 244" stroke="#000" stroke-width="1.1" fill="none"/><path d="M103 276 L135 244" stroke="#000" stroke-width="1.1" fill="none"/><path d="M110 276 L142 244" stroke="#000" stroke-width="1.1" fill="none"/><path d="M117 276 L149 244" stroke="#000" stroke-width="1.1" fill="none"/><path d="M124 276 L156 244" stroke="#000" stroke-width="1.1" fill="none"/></g><rect x="100" y="244" width="21.6" height="32" fill="none" stroke="#000" stroke-width="1.1"/>
<rect x="121.6" y="244" width="97.2" height="32" fill="#000" stroke="#000" stroke-width="1.1"/>
<rect x="155.2" y="252" width="30" height="15" fill="#fff" stroke="#000" stroke-width="0"/>
<text x="170.2" y="264" font-size="12" text-anchor="middle" font-weight="bold" font-family="'Hiragino Sans','Hiragino Kaku Gothic ProN','Yu Gothic','Meiryo',sans-serif" fill="#000">18</text>
<defs><clipPath id="hc129"><rect x="218.8" y="244" width="54" height="32" fill="#fff" stroke="none"/></clipPath></defs><rect x="218.8" y="244" width="54" height="32" fill="#fff" stroke="none"/><g clip-path="url(#hc129)"><circle cx="218.8" cy="248" r="1.3" fill="#000" stroke="#000" stroke-width="0"/><circle cx="226.8" cy="248" r="1.3" fill="#000" stroke="#000" stroke-width="0"/><circle cx="234.8" cy="248" r="1.3" fill="#000" stroke="#000" stroke-width="0"/><circle cx="242.8" cy="248" r="1.3" fill="#000" stroke="#000" stroke-width="0"/><circle cx="250.8" cy="248" r="1.3" fill="#000" stroke="#000" stroke-width="0"/><circle cx="258.8" cy="248" r="1.3" fill="#000" stroke="#000" stroke-width="0"/><circle cx="266.8" cy="248" r="1.3" fill="#000" stroke="#000" stroke-width="0"/><circle cx="274.8" cy="248" r="1.3" fill="#000" stroke="#000" stroke-width="0"/><circle cx="222.8" cy="256" r="1.3" fill="#000" stroke="#000" stroke-width="0"/><circle cx="230.8" cy="256" r="1.3" fill="#000" stroke="#000" stroke-width="0"/><circle cx="238.8" cy="256" r="1.3" fill="#000" stroke="#000" stroke-width="0"/><circle cx="246.8" cy="256" r="1.3" fill="#000" stroke="#000" stroke-width="0"/><circle cx="254.8" cy="256" r="1.3" fill="#000" stroke="#000" stroke-width="0"/><circle cx="262.8" cy="256" r="1.3" fill="#000" stroke="#000" stroke-width="0"/><circle cx="270.8" cy="256" r="1.3" fill="#000" stroke="#000" stroke-width="0"/><circle cx="278.8" cy="256" r="1.3" fill="#000" stroke="#000" stroke-width="0"/><circle cx="218.8" cy="264" r="1.3" fill="#000" stroke="#000" stroke-width="0"/><circle cx="226.8" cy="264" r="1.3" fill="#000" stroke="#000" stroke-width="0"/><circle cx="234.8" cy="264" r="1.3" fill="#000" stroke="#000" stroke-width="0"/><circle cx="242.8" cy="264" r="1.3" fill="#000" stroke="#000" stroke-width="0"/><circle cx="250.8" cy="264" r="1.3" fill="#000" stroke="#000" stroke-width="0"/><circle cx="258.8" cy="264" r="1.3" fill="#000" stroke="#000" stroke-width="0"/><circle cx="266.8" cy="264" r="1.3" fill="#000" stroke="#000" stroke-width="0"/><circle cx="274.8" cy="264" r="1.3" fill="#000" stroke="#000" stroke-width="0"/><circle cx="222.8" cy="272" r="1.3" fill="#000" stroke="#000" stroke-width="0"/><circle cx="230.8" cy="272" r="1.3" fill="#000" stroke="#000" stroke-width="0"/><circle cx="238.8" cy="272" r="1.3" fill="#000" stroke="#000" stroke-width="0"/><circle cx="246.8" cy="272" r="1.3" fill="#000" stroke="#000" stroke-width="0"/><circle cx="254.8" cy="272" r="1.3" fill="#000" stroke="#000" stroke-width="0"/><circle cx="262.8" cy="272" r="1.3" fill="#000" stroke="#000" stroke-width="0"/><circle cx="270.8" cy="272" r="1.3" fill="#000" stroke="#000" stroke-width="0"/><circle cx="278.8" cy="272" r="1.3" fill="#000" stroke="#000" stroke-width="0"/><circle cx="218.8" cy="280" r="1.3" fill="#000" stroke="#000" stroke-width="0"/><circle cx="226.8" cy="280" r="1.3" fill="#000" stroke="#000" stroke-width="0"/><circle cx="234.8" cy="280" r="1.3" fill="#000" stroke="#000" stroke-width="0"/><circle cx="242.8" cy="280" r="1.3" fill="#000" stroke="#000" stroke-width="0"/><circle cx="250.8" cy="280" r="1.3" fill="#000" stroke="#000" stroke-width="0"/><circle cx="258.8" cy="280" r="1.3" fill="#000" stroke="#000" stroke-width="0"/><circle cx="266.8" cy="280" r="1.3" fill="#000" stroke="#000" stroke-width="0"/><circle cx="274.8" cy="280" r="1.3" fill="#000" stroke="#000" stroke-width="0"/></g><rect x="218.8" y="244" width="54" height="32" fill="none" stroke="#000" stroke-width="1.1"/>
<rect x="230.8" y="252" width="30" height="15" fill="#fff" stroke="#000" stroke-width="0"/>
<text x="245.8" y="264" font-size="12" text-anchor="middle" font-weight="bold" font-family="'Hiragino Sans','Hiragino Kaku Gothic ProN','Yu Gothic','Meiryo',sans-serif" fill="#000">10</text>
<rect x="272.8" y="244" width="367.2" height="32" fill="#fff" stroke="#000" stroke-width="1.1"/>
<rect x="441.4" y="252" width="30" height="15" fill="#fff" stroke="#000" stroke-width="0"/>
<text x="456.4" y="264" font-size="12" text-anchor="middle" font-weight="bold" font-family="'Hiragino Sans','Hiragino Kaku Gothic ProN','Yu Gothic','Meiryo',sans-serif" fill="#000">68</text>
<text x="100" y="292" font-size="10" text-anchor="middle" font-weight="normal" font-family="'Hiragino Sans','Hiragino Kaku Gothic ProN','Yu Gothic','Meiryo',sans-serif" fill="#000">0</text>
<text x="640" y="292" font-size="10" text-anchor="middle" font-weight="normal" font-family="'Hiragino Sans','Hiragino Kaku Gothic ProN','Yu Gothic','Meiryo',sans-serif" fill="#000">100</text>
<rect x="60" y="314" width="600" height="42" fill="none" stroke="#000" stroke-width="1"/>
<defs><clipPath id="hc130"><rect x="76" y="327" width="26" height="16" fill="#fff" stroke="none"/></clipPath></defs><rect x="76" y="327" width="26" height="16" fill="#fff" stroke="none"/><g clip-path="url(#hc130)"><path d="M60 343 L76 327" stroke="#000" stroke-width="1.1" fill="none"/><path d="M67 343 L83 327" stroke="#000" stroke-width="1.1" fill="none"/><path d="M74 343 L90 327" stroke="#000" stroke-width="1.1" fill="none"/><path d="M81 343 L97 327" stroke="#000" stroke-width="1.1" fill="none"/><path d="M88 343 L104 327" stroke="#000" stroke-width="1.1" fill="none"/><path d="M95 343 L111 327" stroke="#000" stroke-width="1.1" fill="none"/><path d="M102 343 L118 327" stroke="#000" stroke-width="1.1" fill="none"/><path d="M109 343 L125 327" stroke="#000" stroke-width="1.1" fill="none"/></g><rect x="76" y="327" width="26" height="16" fill="none" stroke="#000" stroke-width="1.1"/>
<text x="108" y="340" font-size="11.5" text-anchor="start" font-weight="normal" font-family="'Hiragino Sans','Hiragino Kaku Gothic ProN','Yu Gothic','Meiryo',sans-serif" fill="#000">石炭</text>
<rect x="226" y="327" width="26" height="16" fill="#000" stroke="#000" stroke-width="1.1"/>
<text x="258" y="340" font-size="11.5" text-anchor="start" font-weight="normal" font-family="'Hiragino Sans','Hiragino Kaku Gothic ProN','Yu Gothic','Meiryo',sans-serif" fill="#000">石油</text>
<defs><clipPath id="hc131"><rect x="376" y="327" width="26" height="16" fill="#fff" stroke="none"/></clipPath></defs><rect x="376" y="327" width="26" height="16" fill="#fff" stroke="none"/><g clip-path="url(#hc131)"><circle cx="376" cy="331" r="1.3" fill="#000" stroke="#000" stroke-width="0"/><circle cx="384" cy="331" r="1.3" fill="#000" stroke="#000" stroke-width="0"/><circle cx="392" cy="331" r="1.3" fill="#000" stroke="#000" stroke-width="0"/><circle cx="400" cy="331" r="1.3" fill="#000" stroke="#000" stroke-width="0"/><circle cx="408" cy="331" r="1.3" fill="#000" stroke="#000" stroke-width="0"/><circle cx="380" cy="339" r="1.3" fill="#000" stroke="#000" stroke-width="0"/><circle cx="388" cy="339" r="1.3" fill="#000" stroke="#000" stroke-width="0"/><circle cx="396" cy="339" r="1.3" fill="#000" stroke="#000" stroke-width="0"/><circle cx="404" cy="339" r="1.3" fill="#000" stroke="#000" stroke-width="0"/><circle cx="376" cy="347" r="1.3" fill="#000" stroke="#000" stroke-width="0"/><circle cx="384" cy="347" r="1.3" fill="#000" stroke="#000" stroke-width="0"/><circle cx="392" cy="347" r="1.3" fill="#000" stroke="#000" stroke-width="0"/><circle cx="400" cy="347" r="1.3" fill="#000" stroke="#000" stroke-width="0"/><circle cx="408" cy="347" r="1.3" fill="#000" stroke="#000" stroke-width="0"/></g><rect x="376" y="327" width="26" height="16" fill="none" stroke="#000" stroke-width="1.1"/>
<text x="408" y="340" font-size="11.5" text-anchor="start" font-weight="normal" font-family="'Hiragino Sans','Hiragino Kaku Gothic ProN','Yu Gothic','Meiryo',sans-serif" fill="#000">天然ガス</text>
<rect x="526" y="327" width="26" height="16" fill="#fff" stroke="#000" stroke-width="1.1"/>
<text x="558" y="340" font-size="11.5" text-anchor="start" font-weight="normal" font-family="'Hiragino Sans','Hiragino Kaku Gothic ProN','Yu Gothic','Meiryo',sans-serif" fill="#000">その他</text>
<text x="20" y="378" font-size="11" text-anchor="start" font-weight="normal" font-family="'Hiragino Sans','Hiragino Kaku Gothic ProN','Yu Gothic','Meiryo',sans-serif" fill="#000">※ 訓練用に作成した架空の数値であり、実在の地点・国ではない。</text>
</svg>
