<svg xmlns="http://www.w3.org/2000/svg" viewBox="0 0 720 470" width="720" height="470" role="img" aria-label="資料1　河川Nの月ごとの流量"><defs>
 <pattern id="pDiag" width="8" height="8" patternUnits="userSpaceOnUse">
  <rect width="8" height="8" fill="#fff"/><path d="M0 8 L8 0" stroke="#000" stroke-width="1.9"/></pattern>
 <pattern id="pDiag2" width="8" height="8" patternUnits="userSpaceOnUse">
  <rect width="8" height="8" fill="#fff"/><path d="M0 0 L8 8" stroke="#000" stroke-width="1.9"/></pattern>
 <pattern id="pDot" width="8" height="8" patternUnits="userSpaceOnUse">
  <rect width="8" height="8" fill="#fff"/><circle cx="2" cy="2" r="1.3" fill="#000"/>
  <circle cx="6" cy="6" r="1.3" fill="#000"/></pattern>
 <pattern id="pDotFine" width="5" height="5" patternUnits="userSpaceOnUse">
  <rect width="5" height="5" fill="#fff"/><circle cx="1.4" cy="1.4" r="0.9" fill="#000"/></pattern>
 <pattern id="pGrid" width="8" height="8" patternUnits="userSpaceOnUse">
  <rect width="8" height="8" fill="#fff"/>
  <path d="M0 4 H8 M4 0 V8" stroke="#000" stroke-width="1.23"/></pattern>
 <pattern id="pWave" width="10" height="8" patternUnits="userSpaceOnUse">
  <rect width="10" height="8" fill="#fff"/>
  <path d="M0 5 q2.5 -3 5 0 t5 0" stroke="#000" stroke-width="1.23" fill="none"/></pattern>
</defs><rect width="720" height="470" fill="#fff"/>
<text x="20" y="26" font-size="16" text-anchor="start" font-weight="bold" font-family="'Hiragino Sans','Hiragino Kaku Gothic ProN','Yu Gothic','Meiryo',sans-serif" fill="#000">資料1　河川Nの月ごとの流量</text>
<path d="M90 380 L650 380" stroke="#000" stroke-width="1.07" fill="none" stroke-dasharray="3 3"/>
<text x="82" y="384" font-size="11" text-anchor="end" font-weight="normal" font-family="'Hiragino Sans','Hiragino Kaku Gothic ProN','Yu Gothic','Meiryo',sans-serif" fill="#000">0</text>
<path d="M90 320 L650 320" stroke="#000" stroke-width="1.07" fill="none" stroke-dasharray="3 3"/>
<text x="82" y="324" font-size="11" text-anchor="end" font-weight="normal" font-family="'Hiragino Sans','Hiragino Kaku Gothic ProN','Yu Gothic','Meiryo',sans-serif" fill="#000">80</text>
<path d="M90 260 L650 260" stroke="#000" stroke-width="1.07" fill="none" stroke-dasharray="3 3"/>
<text x="82" y="264" font-size="11" text-anchor="end" font-weight="normal" font-family="'Hiragino Sans','Hiragino Kaku Gothic ProN','Yu Gothic','Meiryo',sans-serif" fill="#000">160</text>
<path d="M90 200 L650 200" stroke="#000" stroke-width="1.07" fill="none" stroke-dasharray="3 3"/>
<text x="82" y="204" font-size="11" text-anchor="end" font-weight="normal" font-family="'Hiragino Sans','Hiragino Kaku Gothic ProN','Yu Gothic','Meiryo',sans-serif" fill="#000">240</text>
<path d="M90 140 L650 140" stroke="#000" stroke-width="1.07" fill="none" stroke-dasharray="3 3"/>
<text x="82" y="144" font-size="11" text-anchor="end" font-weight="normal" font-family="'Hiragino Sans','Hiragino Kaku Gothic ProN','Yu Gothic','Meiryo',sans-serif" fill="#000">320</text>
<path d="M90 80 L650 80" stroke="#000" stroke-width="1.07" fill="none" stroke-dasharray="3 3"/>
<text x="82" y="84" font-size="11" text-anchor="end" font-weight="normal" font-family="'Hiragino Sans','Hiragino Kaku Gothic ProN','Yu Gothic','Meiryo',sans-serif" fill="#000">400</text>
<path d="M90 80 L90 380" stroke="#000" stroke-width="1.5" fill="none"/>
<path d="M90 380 L650 380" stroke="#000" stroke-width="1.5" fill="none"/>
<path d="M90 380 L90 385" stroke="#000" stroke-width="1.23" fill="none"/>
<text x="90" y="400" font-size="11" text-anchor="middle" font-weight="normal" font-family="'Hiragino Sans','Hiragino Kaku Gothic ProN','Yu Gothic','Meiryo',sans-serif" fill="#000">1</text>
<path d="M140.91 380 L140.91 385" stroke="#000" stroke-width="1.23" fill="none"/>
<text x="140.91" y="400" font-size="11" text-anchor="middle" font-weight="normal" font-family="'Hiragino Sans','Hiragino Kaku Gothic ProN','Yu Gothic','Meiryo',sans-serif" fill="#000">2</text>
<path d="M191.82 380 L191.82 385" stroke="#000" stroke-width="1.23" fill="none"/>
<text x="191.82" y="400" font-size="11" text-anchor="middle" font-weight="normal" font-family="'Hiragino Sans','Hiragino Kaku Gothic ProN','Yu Gothic','Meiryo',sans-serif" fill="#000">3</text>
<path d="M242.73 380 L242.73 385" stroke="#000" stroke-width="1.23" fill="none"/>
<text x="242.73" y="400" font-size="11" text-anchor="middle" font-weight="normal" font-family="'Hiragino Sans','Hiragino Kaku Gothic ProN','Yu Gothic','Meiryo',sans-serif" fill="#000">4</text>
<path d="M293.64 380 L293.64 385" stroke="#000" stroke-width="1.23" fill="none"/>
<text x="293.64" y="400" font-size="11" text-anchor="middle" font-weight="normal" font-family="'Hiragino Sans','Hiragino Kaku Gothic ProN','Yu Gothic','Meiryo',sans-serif" fill="#000">5</text>
<path d="M344.55 380 L344.55 385" stroke="#000" stroke-width="1.23" fill="none"/>
<text x="344.55" y="400" font-size="11" text-anchor="middle" font-weight="normal" font-family="'Hiragino Sans','Hiragino Kaku Gothic ProN','Yu Gothic','Meiryo',sans-serif" fill="#000">6</text>
<path d="M395.45 380 L395.45 385" stroke="#000" stroke-width="1.23" fill="none"/>
<text x="395.45" y="400" font-size="11" text-anchor="middle" font-weight="normal" font-family="'Hiragino Sans','Hiragino Kaku Gothic ProN','Yu Gothic','Meiryo',sans-serif" fill="#000">7</text>
<path d="M446.36 380 L446.36 385" stroke="#000" stroke-width="1.23" fill="none"/>
<text x="446.36" y="400" font-size="11" text-anchor="middle" font-weight="normal" font-family="'Hiragino Sans','Hiragino Kaku Gothic ProN','Yu Gothic','Meiryo',sans-serif" fill="#000">8</text>
<path d="M497.27 380 L497.27 385" stroke="#000" stroke-width="1.23" fill="none"/>
<text x="497.27" y="400" font-size="11" text-anchor="middle" font-weight="normal" font-family="'Hiragino Sans','Hiragino Kaku Gothic ProN','Yu Gothic','Meiryo',sans-serif" fill="#000">9</text>
<path d="M548.18 380 L548.18 385" stroke="#000" stroke-width="1.23" fill="none"/>
<text x="548.18" y="400" font-size="11" text-anchor="middle" font-weight="normal" font-family="'Hiragino Sans','Hiragino Kaku Gothic ProN','Yu Gothic','Meiryo',sans-serif" fill="#000">10</text>
<path d="M599.09 380 L599.09 385" stroke="#000" stroke-width="1.23" fill="none"/>
<text x="599.09" y="400" font-size="11" text-anchor="middle" font-weight="normal" font-family="'Hiragino Sans','Hiragino Kaku Gothic ProN','Yu Gothic','Meiryo',sans-serif" fill="#000">11</text>
<path d="M650 380 L650 385" stroke="#000" stroke-width="1.23" fill="none"/>
<text x="650" y="400" font-size="11" text-anchor="middle" font-weight="normal" font-family="'Hiragino Sans','Hiragino Kaku Gothic ProN','Yu Gothic','Meiryo',sans-serif" fill="#000">12</text>
<polyline points="90,357.5 140.91,359 191.82,348.5 242.73,335 293.64,326 344.55,314 395.45,308 446.36,321.5 497.27,330.5 548.18,344 599.09,351.5 650,356" fill="none" stroke="#000" stroke-width="2.72"/>
<circle cx="90" cy="357.5" r="3.4" fill="#fff" stroke="#000" stroke-width="1.9"/>
<circle cx="140.91" cy="359" r="3.4" fill="#fff" stroke="#000" stroke-width="1.9"/>
<circle cx="191.82" cy="348.5" r="3.4" fill="#fff" stroke="#000" stroke-width="1.9"/>
<circle cx="242.73" cy="335" r="3.4" fill="#fff" stroke="#000" stroke-width="1.9"/>
<circle cx="293.64" cy="326" r="3.4" fill="#fff" stroke="#000" stroke-width="1.9"/>
<circle cx="344.55" cy="314" r="3.4" fill="#fff" stroke="#000" stroke-width="1.9"/>
<circle cx="395.45" cy="308" r="3.4" fill="#fff" stroke="#000" stroke-width="1.9"/>
<circle cx="446.36" cy="321.5" r="3.4" fill="#fff" stroke="#000" stroke-width="1.9"/>
<circle cx="497.27" cy="330.5" r="3.4" fill="#fff" stroke="#000" stroke-width="1.9"/>
<circle cx="548.18" cy="344" r="3.4" fill="#fff" stroke="#000" stroke-width="1.9"/>
<circle cx="599.09" cy="351.5" r="3.4" fill="#fff" stroke="#000" stroke-width="1.9"/>
<circle cx="650" cy="356" r="3.4" fill="#fff" stroke="#000" stroke-width="1.9"/>
<text x="658" y="360" font-size="12" text-anchor="start" font-weight="bold" font-family="'Hiragino Sans','Hiragino Kaku Gothic ProN','Yu Gothic','Meiryo',sans-serif" fill="#000">ア（上流）</text>
<polyline points="90,290 140.91,293 191.82,254 242.73,200 293.64,164 344.55,116 395.45,92 446.36,146 497.27,182 548.18,236 599.09,266 650,284" fill="none" stroke="#000" stroke-width="2.72" stroke-dasharray="8 4"/>
<rect x="86.8" y="286.8" width="6.4" height="6.4" fill="#fff" stroke="#000" stroke-width="1.9"/>
<rect x="137.71" y="289.8" width="6.4" height="6.4" fill="#fff" stroke="#000" stroke-width="1.9"/>
<rect x="188.62" y="250.8" width="6.4" height="6.4" fill="#fff" stroke="#000" stroke-width="1.9"/>
<rect x="239.53" y="196.8" width="6.4" height="6.4" fill="#fff" stroke="#000" stroke-width="1.9"/>
<rect x="290.44" y="160.8" width="6.4" height="6.4" fill="#fff" stroke="#000" stroke-width="1.9"/>
<rect x="341.35" y="112.8" width="6.4" height="6.4" fill="#fff" stroke="#000" stroke-width="1.9"/>
<rect x="392.25" y="88.8" width="6.4" height="6.4" fill="#fff" stroke="#000" stroke-width="1.9"/>
<rect x="443.16" y="142.8" width="6.4" height="6.4" fill="#fff" stroke="#000" stroke-width="1.9"/>
<rect x="494.07" y="178.8" width="6.4" height="6.4" fill="#fff" stroke="#000" stroke-width="1.9"/>
<rect x="544.98" y="232.8" width="6.4" height="6.4" fill="#fff" stroke="#000" stroke-width="1.9"/>
<rect x="595.89" y="262.8" width="6.4" height="6.4" fill="#fff" stroke="#000" stroke-width="1.9"/>
<rect x="646.8" y="280.8" width="6.4" height="6.4" fill="#fff" stroke="#000" stroke-width="1.9"/>
<text x="658" y="288" font-size="12" text-anchor="start" font-weight="bold" font-family="'Hiragino Sans','Hiragino Kaku Gothic ProN','Yu Gothic','Meiryo',sans-serif" fill="#000">ウ（下流）</text>
<text x="50" y="68" font-size="11" text-anchor="start" font-weight="normal" font-family="'Hiragino Sans','Hiragino Kaku Gothic ProN','Yu Gothic','Meiryo',sans-serif" fill="#000">流量（m³/秒）</text>
<text x="370" y="424" font-size="11" text-anchor="middle" font-weight="normal" font-family="'Hiragino Sans','Hiragino Kaku Gothic ProN','Yu Gothic','Meiryo',sans-serif" fill="#000">年</text>
<text x="20" y="456" font-size="11" text-anchor="start" font-weight="normal" font-family="'Hiragino Sans','Hiragino Kaku Gothic ProN','Yu Gothic','Meiryo',sans-serif" fill="#000">※ 訓練用に作成した架空の数値であり、実在の地点・国ではない。</text>
</svg>
