<svg xmlns="http://www.w3.org/2000/svg" viewBox="0 0 720 394" width="720" height="394" role="img" aria-label="資料1　架空の2か国の人口ピラミッド"><defs>
 <pattern id="pDiag" width="8" height="8" patternUnits="userSpaceOnUse">
  <rect width="8" height="8" fill="#fff"/><path d="M0 8 L8 0" stroke="#000" stroke-width="1.9"/></pattern>
 <pattern id="pDiag2" width="8" height="8" patternUnits="userSpaceOnUse">
  <rect width="8" height="8" fill="#fff"/><path d="M0 0 L8 8" stroke="#000" stroke-width="1.9"/></pattern>
 <pattern id="pDot" width="8" height="8" patternUnits="userSpaceOnUse">
  <rect width="8" height="8" fill="#fff"/><circle cx="2" cy="2" r="1.3" fill="#000"/>
  <circle cx="6" cy="6" r="1.3" fill="#000"/></pattern>
 <pattern id="pDotFine" width="5" height="5" patternUnits="userSpaceOnUse">
  <rect width="5" height="5" fill="#fff"/><circle cx="1.4" cy="1.4" r="0.9" fill="#000"/></pattern>
 <pattern id="pGrid" width="8" height="8" patternUnits="userSpaceOnUse">
  <rect width="8" height="8" fill="#fff"/>
  <path d="M0 4 H8 M4 0 V8" stroke="#000" stroke-width="1.23"/></pattern>
 <pattern id="pWave" width="10" height="8" patternUnits="userSpaceOnUse">
  <rect width="10" height="8" fill="#fff"/>
  <path d="M0 5 q2.5 -3 5 0 t5 0" stroke="#000" stroke-width="1.23" fill="none"/></pattern>
</defs><rect width="720" height="394" fill="#fff"/>
<text x="20" y="26" font-size="16" text-anchor="start" font-weight="bold" font-family="'Hiragino Sans','Hiragino Kaku Gothic ProN','Yu Gothic','Meiryo',sans-serif" fill="#000">資料1　架空の2か国の人口ピラミッド</text>
<rect x="20" y="44" width="213.33" height="300" fill="none" stroke="#000" stroke-width="1.63"/><text x="126.67" y="64" font-size="14" text-anchor="middle" font-weight="bold" font-family="'Hiragino Sans','Hiragino Kaku Gothic ProN','Yu Gothic','Meiryo',sans-serif" fill="#000">A国</text><defs><clipPath id="hc411"><rect x="85.64" y="291.59" width="64.03" height="11.41" fill="#fff" stroke="none"/></clipPath></defs><rect x="85.64" y="291.59" width="64.03" height="11.41" fill="#fff" stroke="none"/><g clip-path="url(#hc411)"><path d="M74.23 303 L85.64 291.59" stroke="#000" stroke-width="1.1" fill="none" data-h="1"/><path d="M81.23 303 L92.64 291.59" stroke="#000" stroke-width="1.1" fill="none" data-h="1"/><path d="M88.23 303 L99.64 291.59" stroke="#000" stroke-width="1.1" fill="none" data-h="1"/><path d="M95.23 303 L106.64 291.59" stroke="#000" stroke-width="1.1" fill="none" data-h="1"/><path d="M102.23 303 L113.64 291.59" stroke="#000" stroke-width="1.1" fill="none" data-h="1"/><path d="M109.23 303 L120.64 291.59" stroke="#000" stroke-width="1.1" fill="none" data-h="1"/><path d="M116.23 303 L127.64 291.59" stroke="#000" stroke-width="1.1" fill="none" data-h="1"/><path d="M123.23 303 L134.64 291.59" stroke="#000" stroke-width="1.1" fill="none" data-h="1"/><path d="M130.23 303 L141.64 291.59" stroke="#000" stroke-width="1.1" fill="none" data-h="1"/><path d="M137.23 303 L148.64 291.59" stroke="#000" stroke-width="1.1" fill="none" data-h="1"/><path d="M144.23 303 L155.64 291.59" stroke="#000" stroke-width="1.1" fill="none" data-h="1"/><path d="M151.23 303 L162.64 291.59" stroke="#000" stroke-width="1.1" fill="none" data-h="1"/></g><rect x="85.64" y="291.59" width="64.03" height="11.41" fill="none" stroke="#000" stroke-width="1.09"/><rect x="149.67" y="291.59" width="61.56" height="11.41" fill="#fff" stroke="#000" stroke-width="1.09"/><text x="25" y="302" font-size="12" text-anchor="start" font-weight="normal" font-family="'Hiragino Sans','Hiragino Kaku Gothic ProN','Yu Gothic','Meiryo',sans-serif" fill="#000">0〜4</text><defs><clipPath id="hc412"><rect x="93.03" y="278.18" width="56.64" height="11.41" fill="#fff" stroke="none"/></clipPath></defs><rect x="93.03" y="278.18" width="56.64" height="11.41" fill="#fff" stroke="none"/><g clip-path="url(#hc412)"><path d="M81.62 289.59 L93.03 278.18" stroke="#000" stroke-width="1.1" fill="none" data-h="1"/><path d="M88.62 289.59 L100.03 278.18" stroke="#000" stroke-width="1.1" fill="none" data-h="1"/><path d="M95.62 289.59 L107.03 278.18" stroke="#000" stroke-width="1.1" fill="none" data-h="1"/><path d="M102.62 289.59 L114.03 278.18" stroke="#000" stroke-width="1.1" fill="none" data-h="1"/><path d="M109.62 289.59 L121.03 278.18" stroke="#000" stroke-width="1.1" fill="none" data-h="1"/><path d="M116.62 289.59 L128.03 278.18" stroke="#000" stroke-width="1.1" fill="none" data-h="1"/><path d="M123.62 289.59 L135.03 278.18" stroke="#000" stroke-width="1.1" fill="none" data-h="1"/><path d="M130.62 289.59 L142.03 278.18" stroke="#000" stroke-width="1.1" fill="none" data-h="1"/><path d="M137.62 289.59 L149.03 278.18" stroke="#000" stroke-width="1.1" fill="none" data-h="1"/><path d="M144.62 289.59 L156.03 278.18" stroke="#000" stroke-width="1.1" fill="none" data-h="1"/><path d="M151.62 289.59 L163.03 278.18" stroke="#000" stroke-width="1.1" fill="none" data-h="1"/></g><rect x="93.03" y="278.18" width="56.64" height="11.41" fill="none" stroke="#000" stroke-width="1.09"/><rect x="149.67" y="278.18" width="55" height="11.41" fill="#fff" stroke="#000" stroke-width="1.09"/><defs><clipPath id="hc413"><rect x="99.6" y="264.76" width="50.07" height="11.41" fill="#fff" stroke="none"/></clipPath></defs><rect x="99.6" y="264.76" width="50.07" height="11.41" fill="#fff" stroke="none"/><g clip-path="url(#hc413)"><path d="M88.18 276.18 L99.6 264.76" stroke="#000" stroke-width="1.1" fill="none" data-h="1"/><path d="M95.18 276.18 L106.6 264.76" stroke="#000" stroke-width="1.1" fill="none" data-h="1"/><path d="M102.18 276.18 L113.6 264.76" stroke="#000" stroke-width="1.1" fill="none" data-h="1"/><path d="M109.18 276.18 L120.6 264.76" stroke="#000" stroke-width="1.1" fill="none" data-h="1"/><path d="M116.18 276.18 L127.6 264.76" stroke="#000" stroke-width="1.1" fill="none" data-h="1"/><path d="M123.18 276.18 L134.6 264.76" stroke="#000" stroke-width="1.1" fill="none" data-h="1"/><path d="M130.18 276.18 L141.6 264.76" stroke="#000" stroke-width="1.1" fill="none" data-h="1"/><path d="M137.18 276.18 L148.6 264.76" stroke="#000" stroke-width="1.1" fill="none" data-h="1"/><path d="M144.18 276.18 L155.6 264.76" stroke="#000" stroke-width="1.1" fill="none" data-h="1"/><path d="M151.18 276.18 L162.6 264.76" stroke="#000" stroke-width="1.1" fill="none" data-h="1"/></g><rect x="99.6" y="264.76" width="50.07" height="11.41" fill="none" stroke="#000" stroke-width="1.09"/><rect x="149.67" y="264.76" width="48.43" height="11.41" fill="#fff" stroke="#000" stroke-width="1.09"/><defs><clipPath id="hc414"><rect x="105.34" y="251.35" width="44.33" height="11.41" fill="#fff" stroke="none"/></clipPath></defs><rect x="105.34" y="251.35" width="44.33" height="11.41" fill="#fff" stroke="none"/><g clip-path="url(#hc414)"><path d="M93.93 262.76 L105.34 251.35" stroke="#000" stroke-width="1.1" fill="none" data-h="1"/><path d="M100.93 262.76 L112.34 251.35" stroke="#000" stroke-width="1.1" fill="none" data-h="1"/><path d="M107.93 262.76 L119.34 251.35" stroke="#000" stroke-width="1.1" fill="none" data-h="1"/><path d="M114.93 262.76 L126.34 251.35" stroke="#000" stroke-width="1.1" fill="none" data-h="1"/><path d="M121.93 262.76 L133.34 251.35" stroke="#000" stroke-width="1.1" fill="none" data-h="1"/><path d="M128.93 262.76 L140.34 251.35" stroke="#000" stroke-width="1.1" fill="none" data-h="1"/><path d="M135.93 262.76 L147.34 251.35" stroke="#000" stroke-width="1.1" fill="none" data-h="1"/><path d="M142.93 262.76 L154.34 251.35" stroke="#000" stroke-width="1.1" fill="none" data-h="1"/><path d="M149.93 262.76 L161.34 251.35" stroke="#000" stroke-width="1.1" fill="none" data-h="1"/></g><rect x="105.34" y="251.35" width="44.33" height="11.41" fill="none" stroke="#000" stroke-width="1.09"/><rect x="149.67" y="251.35" width="42.68" height="11.41" fill="#fff" stroke="#000" stroke-width="1.09"/><defs><clipPath id="hc415"><rect x="111.91" y="237.94" width="37.76" height="11.41" fill="#fff" stroke="none"/></clipPath></defs><rect x="111.91" y="237.94" width="37.76" height="11.41" fill="#fff" stroke="none"/><g clip-path="url(#hc415)"><path d="M100.5 249.35 L111.91 237.94" stroke="#000" stroke-width="1.1" fill="none" data-h="1"/><path d="M107.5 249.35 L118.91 237.94" stroke="#000" stroke-width="1.1" fill="none" data-h="1"/><path d="M114.5 249.35 L125.91 237.94" stroke="#000" stroke-width="1.1" fill="none" data-h="1"/><path d="M121.5 249.35 L132.91 237.94" stroke="#000" stroke-width="1.1" fill="none" data-h="1"/><path d="M128.5 249.35 L139.91 237.94" stroke="#000" stroke-width="1.1" fill="none" data-h="1"/><path d="M135.5 249.35 L146.91 237.94" stroke="#000" stroke-width="1.1" fill="none" data-h="1"/><path d="M142.5 249.35 L153.91 237.94" stroke="#000" stroke-width="1.1" fill="none" data-h="1"/><path d="M149.5 249.35 L160.91 237.94" stroke="#000" stroke-width="1.1" fill="none" data-h="1"/><path d="M156.5 249.35 L167.91 237.94" stroke="#000" stroke-width="1.1" fill="none" data-h="1"/></g><rect x="111.91" y="237.94" width="37.76" height="11.41" fill="none" stroke="#000" stroke-width="1.09"/><rect x="149.67" y="237.94" width="36.94" height="11.41" fill="#fff" stroke="#000" stroke-width="1.09"/><text x="25" y="248.35" font-size="12" text-anchor="start" font-weight="normal" font-family="'Hiragino Sans','Hiragino Kaku Gothic ProN','Yu Gothic','Meiryo',sans-serif" fill="#000">20〜24</text><defs><clipPath id="hc416"><rect x="116.83" y="224.53" width="32.83" height="11.41" fill="#fff" stroke="none"/></clipPath></defs><rect x="116.83" y="224.53" width="32.83" height="11.41" fill="#fff" stroke="none"/><g clip-path="url(#hc416)"><path d="M105.42 235.94 L116.83 224.53" stroke="#000" stroke-width="1.1" fill="none" data-h="1"/><path d="M112.42 235.94 L123.83 224.53" stroke="#000" stroke-width="1.1" fill="none" data-h="1"/><path d="M119.42 235.94 L130.83 224.53" stroke="#000" stroke-width="1.1" fill="none" data-h="1"/><path d="M126.42 235.94 L137.83 224.53" stroke="#000" stroke-width="1.1" fill="none" data-h="1"/><path d="M133.42 235.94 L144.83 224.53" stroke="#000" stroke-width="1.1" fill="none" data-h="1"/><path d="M140.42 235.94 L151.83 224.53" stroke="#000" stroke-width="1.1" fill="none" data-h="1"/><path d="M147.42 235.94 L158.83 224.53" stroke="#000" stroke-width="1.1" fill="none" data-h="1"/><path d="M154.42 235.94 L165.83 224.53" stroke="#000" stroke-width="1.1" fill="none" data-h="1"/></g><rect x="116.83" y="224.53" width="32.83" height="11.41" fill="none" stroke="#000" stroke-width="1.09"/><rect x="149.67" y="224.53" width="32.01" height="11.41" fill="#fff" stroke="#000" stroke-width="1.09"/><defs><clipPath id="hc417"><rect x="121.76" y="211.12" width="27.91" height="11.41" fill="#fff" stroke="none"/></clipPath></defs><rect x="121.76" y="211.12" width="27.91" height="11.41" fill="#fff" stroke="none"/><g clip-path="url(#hc417)"><path d="M110.35 222.53 L121.76 211.12" stroke="#000" stroke-width="1.1" fill="none" data-h="1"/><path d="M117.35 222.53 L128.76 211.12" stroke="#000" stroke-width="1.1" fill="none" data-h="1"/><path d="M124.35 222.53 L135.76 211.12" stroke="#000" stroke-width="1.1" fill="none" data-h="1"/><path d="M131.35 222.53 L142.76 211.12" stroke="#000" stroke-width="1.1" fill="none" data-h="1"/><path d="M138.35 222.53 L149.76 211.12" stroke="#000" stroke-width="1.1" fill="none" data-h="1"/><path d="M145.35 222.53 L156.76 211.12" stroke="#000" stroke-width="1.1" fill="none" data-h="1"/><path d="M152.35 222.53 L163.76 211.12" stroke="#000" stroke-width="1.1" fill="none" data-h="1"/></g><rect x="121.76" y="211.12" width="27.91" height="11.41" fill="none" stroke="#000" stroke-width="1.09"/><rect x="149.67" y="211.12" width="27.91" height="11.41" fill="#fff" stroke="#000" stroke-width="1.09"/><defs><clipPath id="hc418"><rect x="126.68" y="197.71" width="22.98" height="11.41" fill="#fff" stroke="none"/></clipPath></defs><rect x="126.68" y="197.71" width="22.98" height="11.41" fill="#fff" stroke="none"/><g clip-path="url(#hc418)"><path d="M115.27 209.12 L126.68 197.71" stroke="#000" stroke-width="1.1" fill="none" data-h="1"/><path d="M122.27 209.12 L133.68 197.71" stroke="#000" stroke-width="1.1" fill="none" data-h="1"/><path d="M129.27 209.12 L140.68 197.71" stroke="#000" stroke-width="1.1" fill="none" data-h="1"/><path d="M136.27 209.12 L147.68 197.71" stroke="#000" stroke-width="1.1" fill="none" data-h="1"/><path d="M143.27 209.12 L154.68 197.71" stroke="#000" stroke-width="1.1" fill="none" data-h="1"/><path d="M150.27 209.12 L161.68 197.71" stroke="#000" stroke-width="1.1" fill="none" data-h="1"/></g><rect x="126.68" y="197.71" width="22.98" height="11.41" fill="none" stroke="#000" stroke-width="1.09"/><rect x="149.67" y="197.71" width="22.98" height="11.41" fill="#fff" stroke="#000" stroke-width="1.09"/><defs><clipPath id="hc419"><rect x="130.79" y="184.29" width="18.88" height="11.41" fill="#fff" stroke="none"/></clipPath></defs><rect x="130.79" y="184.29" width="18.88" height="11.41" fill="#fff" stroke="none"/><g clip-path="url(#hc419)"><path d="M119.38 195.71 L130.79 184.29" stroke="#000" stroke-width="1.1" fill="none" data-h="1"/><path d="M126.38 195.71 L137.79 184.29" stroke="#000" stroke-width="1.1" fill="none" data-h="1"/><path d="M133.38 195.71 L144.79 184.29" stroke="#000" stroke-width="1.1" fill="none" data-h="1"/><path d="M140.38 195.71 L151.79 184.29" stroke="#000" stroke-width="1.1" fill="none" data-h="1"/><path d="M147.38 195.71 L158.79 184.29" stroke="#000" stroke-width="1.1" fill="none" data-h="1"/><path d="M154.38 195.71 L165.79 184.29" stroke="#000" stroke-width="1.1" fill="none" data-h="1"/></g><rect x="130.79" y="184.29" width="18.88" height="11.41" fill="none" stroke="#000" stroke-width="1.09"/><rect x="149.67" y="184.29" width="21.34" height="11.41" fill="#fff" stroke="#000" stroke-width="1.09"/><text x="25" y="194.71" font-size="12" text-anchor="start" font-weight="normal" font-family="'Hiragino Sans','Hiragino Kaku Gothic ProN','Yu Gothic','Meiryo',sans-serif" fill="#000">40〜44</text><defs><clipPath id="hc420"><rect x="134.07" y="170.88" width="15.6" height="11.41" fill="#fff" stroke="none"/></clipPath></defs><rect x="134.07" y="170.88" width="15.6" height="11.41" fill="#fff" stroke="none"/><g clip-path="url(#hc420)"><path d="M122.66 182.29 L134.07 170.88" stroke="#000" stroke-width="1.1" fill="none" data-h="1"/><path d="M129.66 182.29 L141.07 170.88" stroke="#000" stroke-width="1.1" fill="none" data-h="1"/><path d="M136.66 182.29 L148.07 170.88" stroke="#000" stroke-width="1.1" fill="none" data-h="1"/><path d="M143.66 182.29 L155.07 170.88" stroke="#000" stroke-width="1.1" fill="none" data-h="1"/><path d="M150.66 182.29 L162.07 170.88" stroke="#000" stroke-width="1.1" fill="none" data-h="1"/></g><rect x="134.07" y="170.88" width="15.6" height="11.41" fill="none" stroke="#000" stroke-width="1.09"/><rect x="149.67" y="170.88" width="16.42" height="11.41" fill="#fff" stroke="#000" stroke-width="1.09"/><defs><clipPath id="hc421"><rect x="137.35" y="157.47" width="12.31" height="11.41" fill="#fff" stroke="none"/></clipPath></defs><rect x="137.35" y="157.47" width="12.31" height="11.41" fill="#fff" stroke="none"/><g clip-path="url(#hc421)"><path d="M125.94 168.88 L137.35 157.47" stroke="#000" stroke-width="1.1" fill="none" data-h="1"/><path d="M132.94 168.88 L144.35 157.47" stroke="#000" stroke-width="1.1" fill="none" data-h="1"/><path d="M139.94 168.88 L151.35 157.47" stroke="#000" stroke-width="1.1" fill="none" data-h="1"/><path d="M146.94 168.88 L158.35 157.47" stroke="#000" stroke-width="1.1" fill="none" data-h="1"/><path d="M153.94 168.88 L165.35 157.47" stroke="#000" stroke-width="1.1" fill="none" data-h="1"/></g><rect x="137.35" y="157.47" width="12.31" height="11.41" fill="none" stroke="#000" stroke-width="1.09"/><rect x="149.67" y="157.47" width="13.13" height="11.41" fill="#fff" stroke="#000" stroke-width="1.09"/><defs><clipPath id="hc422"><rect x="139.82" y="144.06" width="9.85" height="11.41" fill="#fff" stroke="none"/></clipPath></defs><rect x="139.82" y="144.06" width="9.85" height="11.41" fill="#fff" stroke="none"/><g clip-path="url(#hc422)"><path d="M128.4 155.47 L139.82 144.06" stroke="#000" stroke-width="1.1" fill="none" data-h="1"/><path d="M135.4 155.47 L146.82 144.06" stroke="#000" stroke-width="1.1" fill="none" data-h="1"/><path d="M142.4 155.47 L153.82 144.06" stroke="#000" stroke-width="1.1" fill="none" data-h="1"/><path d="M149.4 155.47 L160.82 144.06" stroke="#000" stroke-width="1.1" fill="none" data-h="1"/><path d="M156.4 155.47 L167.82 144.06" stroke="#000" stroke-width="1.1" fill="none" data-h="1"/></g><rect x="139.82" y="144.06" width="9.85" height="11.41" fill="none" stroke="#000" stroke-width="1.09"/><rect x="149.67" y="144.06" width="10.67" height="11.41" fill="#fff" stroke="#000" stroke-width="1.09"/><defs><clipPath id="hc423"><rect x="143.1" y="130.65" width="6.57" height="11.41" fill="#fff" stroke="none"/></clipPath></defs><rect x="143.1" y="130.65" width="6.57" height="11.41" fill="#fff" stroke="none"/><g clip-path="url(#hc423)"><path d="M131.69 142.06 L143.1 130.65" stroke="#000" stroke-width="1.1" fill="none" data-h="1"/><path d="M138.69 142.06 L150.1 130.65" stroke="#000" stroke-width="1.1" fill="none" data-h="1"/><path d="M145.69 142.06 L157.1 130.65" stroke="#000" stroke-width="1.1" fill="none" data-h="1"/><path d="M152.69 142.06 L164.1 130.65" stroke="#000" stroke-width="1.1" fill="none" data-h="1"/></g><rect x="143.1" y="130.65" width="6.57" height="11.41" fill="none" stroke="#000" stroke-width="1.09"/><rect x="149.67" y="130.65" width="7.39" height="11.41" fill="#fff" stroke="#000" stroke-width="1.09"/><text x="25" y="141.06" font-size="12" text-anchor="start" font-weight="normal" font-family="'Hiragino Sans','Hiragino Kaku Gothic ProN','Yu Gothic','Meiryo',sans-serif" fill="#000">60〜64</text><defs><clipPath id="hc424"><rect x="144.74" y="117.24" width="4.92" height="11.41" fill="#fff" stroke="none"/></clipPath></defs><rect x="144.74" y="117.24" width="4.92" height="11.41" fill="#fff" stroke="none"/><g clip-path="url(#hc424)"><path d="M133.33 128.65 L144.74 117.24" stroke="#000" stroke-width="1.1" fill="none" data-h="1"/><path d="M140.33 128.65 L151.74 117.24" stroke="#000" stroke-width="1.1" fill="none" data-h="1"/><path d="M147.33 128.65 L158.74 117.24" stroke="#000" stroke-width="1.1" fill="none" data-h="1"/><path d="M154.33 128.65 L165.74 117.24" stroke="#000" stroke-width="1.1" fill="none" data-h="1"/></g><rect x="144.74" y="117.24" width="4.92" height="11.41" fill="none" stroke="#000" stroke-width="1.09"/><rect x="149.67" y="117.24" width="5.75" height="11.41" fill="#fff" stroke="#000" stroke-width="1.09"/><defs><clipPath id="hc425"><rect x="146.38" y="103.82" width="3.28" height="11.41" fill="#fff" stroke="none"/></clipPath></defs><rect x="146.38" y="103.82" width="3.28" height="11.41" fill="#fff" stroke="none"/><g clip-path="url(#hc425)"><path d="M134.97 115.24 L146.38 103.82" stroke="#000" stroke-width="1.1" fill="none" data-h="1"/><path d="M141.97 115.24 L153.38 103.82" stroke="#000" stroke-width="1.1" fill="none" data-h="1"/><path d="M148.97 115.24 L160.38 103.82" stroke="#000" stroke-width="1.1" fill="none" data-h="1"/><path d="M155.97 115.24 L167.38 103.82" stroke="#000" stroke-width="1.1" fill="none" data-h="1"/></g><rect x="146.38" y="103.82" width="3.28" height="11.41" fill="none" stroke="#000" stroke-width="1.09"/><rect x="149.67" y="103.82" width="4.1" height="11.41" fill="#fff" stroke="#000" stroke-width="1.09"/><defs><clipPath id="hc426"><rect x="148.03" y="90.41" width="1.64" height="11.41" fill="#fff" stroke="none"/></clipPath></defs><rect x="148.03" y="90.41" width="1.64" height="11.41" fill="#fff" stroke="none"/><g clip-path="url(#hc426)"><path d="M136.61 101.82 L148.03 90.41" stroke="#000" stroke-width="1.1" fill="none" data-h="1"/><path d="M143.61 101.82 L155.03 90.41" stroke="#000" stroke-width="1.1" fill="none" data-h="1"/><path d="M150.61 101.82 L162.03 90.41" stroke="#000" stroke-width="1.1" fill="none" data-h="1"/></g><rect x="148.03" y="90.41" width="1.64" height="11.41" fill="none" stroke="#000" stroke-width="1.09"/><rect x="149.67" y="90.41" width="2.46" height="11.41" fill="#fff" stroke="#000" stroke-width="1.09"/><defs><clipPath id="hc427"><rect x="148.85" y="77" width="0.82" height="11.41" fill="#fff" stroke="none"/></clipPath></defs><rect x="148.85" y="77" width="0.82" height="11.41" fill="#fff" stroke="none"/><g clip-path="url(#hc427)"><path d="M137.43 88.41 L148.85 77" stroke="#000" stroke-width="1.1" fill="none" data-h="1"/><path d="M144.43 88.41 L155.85 77" stroke="#000" stroke-width="1.1" fill="none" data-h="1"/><path d="M151.43 88.41 L162.85 77" stroke="#000" stroke-width="1.1" fill="none" data-h="1"/></g><rect x="148.85" y="77" width="0.82" height="11.41" fill="none" stroke="#000" stroke-width="1.09"/><rect x="149.67" y="77" width="1.64" height="11.41" fill="#fff" stroke="#000" stroke-width="1.09"/><text x="25" y="87.41" font-size="12" text-anchor="start" font-weight="normal" font-family="'Hiragino Sans','Hiragino Kaku Gothic ProN','Yu Gothic','Meiryo',sans-serif" fill="#000">80以上</text><path d="M149.67 76 L149.67 304" stroke="#000" stroke-width="1.36" fill="none"/><path d="M78 304 L221.33 304" stroke="#000" stroke-width="1.36" fill="none"/><path d="M133.25 304 L133.25 309" stroke="#000" stroke-width="1.09" fill="none"/><text x="133.25" y="321" font-size="11" text-anchor="middle" font-weight="normal" font-family="'Hiragino Sans','Hiragino Kaku Gothic ProN','Yu Gothic','Meiryo',sans-serif" fill="#000">2</text><path d="M166.08 304 L166.08 309" stroke="#000" stroke-width="1.09" fill="none"/><text x="166.08" y="321" font-size="11" text-anchor="middle" font-weight="normal" font-family="'Hiragino Sans','Hiragino Kaku Gothic ProN','Yu Gothic','Meiryo',sans-serif" fill="#000">2</text><path d="M116.83 304 L116.83 309" stroke="#000" stroke-width="1.09" fill="none"/><text x="116.83" y="321" font-size="11" text-anchor="middle" font-weight="normal" font-family="'Hiragino Sans','Hiragino Kaku Gothic ProN','Yu Gothic','Meiryo',sans-serif" fill="#000">4</text><path d="M182.5 304 L182.5 309" stroke="#000" stroke-width="1.09" fill="none"/><text x="182.5" y="321" font-size="11" text-anchor="middle" font-weight="normal" font-family="'Hiragino Sans','Hiragino Kaku Gothic ProN','Yu Gothic','Meiryo',sans-serif" fill="#000">4</text><path d="M100.42 304 L100.42 309" stroke="#000" stroke-width="1.09" fill="none"/><text x="100.42" y="321" font-size="11" text-anchor="middle" font-weight="normal" font-family="'Hiragino Sans','Hiragino Kaku Gothic ProN','Yu Gothic','Meiryo',sans-serif" fill="#000">6</text><path d="M198.92 304 L198.92 309" stroke="#000" stroke-width="1.09" fill="none"/><text x="198.92" y="321" font-size="11" text-anchor="middle" font-weight="normal" font-family="'Hiragino Sans','Hiragino Kaku Gothic ProN','Yu Gothic','Meiryo',sans-serif" fill="#000">6</text><path d="M84 304 L84 309" stroke="#000" stroke-width="1.09" fill="none"/><text x="84" y="321" font-size="11" text-anchor="middle" font-weight="normal" font-family="'Hiragino Sans','Hiragino Kaku Gothic ProN','Yu Gothic','Meiryo',sans-serif" fill="#000">8</text><path d="M215.33 304 L215.33 309" stroke="#000" stroke-width="1.09" fill="none"/><text x="215.33" y="321" font-size="11" text-anchor="middle" font-weight="normal" font-family="'Hiragino Sans','Hiragino Kaku Gothic ProN','Yu Gothic','Meiryo',sans-serif" fill="#000">8</text><text x="25" y="338" font-size="11" text-anchor="start" font-weight="normal" font-family="'Hiragino Sans','Hiragino Kaku Gothic ProN','Yu Gothic','Meiryo',sans-serif" fill="#000">男（％）</text><text x="228.33" y="338" font-size="11" text-anchor="end" font-weight="normal" font-family="'Hiragino Sans','Hiragino Kaku Gothic ProN','Yu Gothic','Meiryo',sans-serif" fill="#000">女（％）</text>
<rect x="253.33" y="44" width="213.33" height="300" fill="none" stroke="#000" stroke-width="1.63"/><text x="360" y="64" font-size="14" text-anchor="middle" font-weight="bold" font-family="'Hiragino Sans','Hiragino Kaku Gothic ProN','Yu Gothic','Meiryo',sans-serif" fill="#000">C国</text><defs><clipPath id="hc428"><rect x="366.58" y="291.59" width="16.42" height="11.41" fill="#fff" stroke="none"/></clipPath></defs><rect x="366.58" y="291.59" width="16.42" height="11.41" fill="#fff" stroke="none"/><g clip-path="url(#hc428)"><path d="M355.17 303 L366.58 291.59" stroke="#000" stroke-width="1.1" fill="none" data-h="1"/><path d="M362.17 303 L373.58 291.59" stroke="#000" stroke-width="1.1" fill="none" data-h="1"/><path d="M369.17 303 L380.58 291.59" stroke="#000" stroke-width="1.1" fill="none" data-h="1"/><path d="M376.17 303 L387.58 291.59" stroke="#000" stroke-width="1.1" fill="none" data-h="1"/><path d="M383.17 303 L394.58 291.59" stroke="#000" stroke-width="1.1" fill="none" data-h="1"/></g><rect x="366.58" y="291.59" width="16.42" height="11.41" fill="none" stroke="#000" stroke-width="1.09"/><rect x="383" y="291.59" width="15.6" height="11.41" fill="#fff" stroke="#000" stroke-width="1.09"/><text x="258.33" y="302" font-size="12" text-anchor="start" font-weight="normal" font-family="'Hiragino Sans','Hiragino Kaku Gothic ProN','Yu Gothic','Meiryo',sans-serif" fill="#000">0〜4</text><defs><clipPath id="hc429"><rect x="365.76" y="278.18" width="17.24" height="11.41" fill="#fff" stroke="none"/></clipPath></defs><rect x="365.76" y="278.18" width="17.24" height="11.41" fill="#fff" stroke="none"/><g clip-path="url(#hc429)"><path d="M354.35 289.59 L365.76 278.18" stroke="#000" stroke-width="1.1" fill="none" data-h="1"/><path d="M361.35 289.59 L372.76 278.18" stroke="#000" stroke-width="1.1" fill="none" data-h="1"/><path d="M368.35 289.59 L379.76 278.18" stroke="#000" stroke-width="1.1" fill="none" data-h="1"/><path d="M375.35 289.59 L386.76 278.18" stroke="#000" stroke-width="1.1" fill="none" data-h="1"/><path d="M382.35 289.59 L393.76 278.18" stroke="#000" stroke-width="1.1" fill="none" data-h="1"/><path d="M389.35 289.59 L400.76 278.18" stroke="#000" stroke-width="1.1" fill="none" data-h="1"/></g><rect x="365.76" y="278.18" width="17.24" height="11.41" fill="none" stroke="#000" stroke-width="1.09"/><rect x="383" y="278.18" width="16.42" height="11.41" fill="#fff" stroke="#000" stroke-width="1.09"/><defs><clipPath id="hc430"><rect x="363.3" y="264.76" width="19.7" height="11.41" fill="#fff" stroke="none"/></clipPath></defs><rect x="363.3" y="264.76" width="19.7" height="11.41" fill="#fff" stroke="none"/><g clip-path="url(#hc430)"><path d="M351.89 276.18 L363.3 264.76" stroke="#000" stroke-width="1.1" fill="none" data-h="1"/><path d="M358.89 276.18 L370.3 264.76" stroke="#000" stroke-width="1.1" fill="none" data-h="1"/><path d="M365.89 276.18 L377.3 264.76" stroke="#000" stroke-width="1.1" fill="none" data-h="1"/><path d="M372.89 276.18 L384.3 264.76" stroke="#000" stroke-width="1.1" fill="none" data-h="1"/><path d="M379.89 276.18 L391.3 264.76" stroke="#000" stroke-width="1.1" fill="none" data-h="1"/><path d="M386.89 276.18 L398.3 264.76" stroke="#000" stroke-width="1.1" fill="none" data-h="1"/></g><rect x="363.3" y="264.76" width="19.7" height="11.41" fill="none" stroke="#000" stroke-width="1.09"/><rect x="383" y="264.76" width="18.88" height="11.41" fill="#fff" stroke="#000" stroke-width="1.09"/><defs><clipPath id="hc431"><rect x="361.66" y="251.35" width="21.34" height="11.41" fill="#fff" stroke="none"/></clipPath></defs><rect x="361.66" y="251.35" width="21.34" height="11.41" fill="#fff" stroke="none"/><g clip-path="url(#hc431)"><path d="M350.25 262.76 L361.66 251.35" stroke="#000" stroke-width="1.1" fill="none" data-h="1"/><path d="M357.25 262.76 L368.66 251.35" stroke="#000" stroke-width="1.1" fill="none" data-h="1"/><path d="M364.25 262.76 L375.66 251.35" stroke="#000" stroke-width="1.1" fill="none" data-h="1"/><path d="M371.25 262.76 L382.66 251.35" stroke="#000" stroke-width="1.1" fill="none" data-h="1"/><path d="M378.25 262.76 L389.66 251.35" stroke="#000" stroke-width="1.1" fill="none" data-h="1"/><path d="M385.25 262.76 L396.66 251.35" stroke="#000" stroke-width="1.1" fill="none" data-h="1"/></g><rect x="361.66" y="251.35" width="21.34" height="11.41" fill="none" stroke="#000" stroke-width="1.09"/><rect x="383" y="251.35" width="20.52" height="11.41" fill="#fff" stroke="#000" stroke-width="1.09"/><defs><clipPath id="hc432"><rect x="360.02" y="237.94" width="22.98" height="11.41" fill="#fff" stroke="none"/></clipPath></defs><rect x="360.02" y="237.94" width="22.98" height="11.41" fill="#fff" stroke="none"/><g clip-path="url(#hc432)"><path d="M348.6 249.35 L360.02 237.94" stroke="#000" stroke-width="1.1" fill="none" data-h="1"/><path d="M355.6 249.35 L367.02 237.94" stroke="#000" stroke-width="1.1" fill="none" data-h="1"/><path d="M362.6 249.35 L374.02 237.94" stroke="#000" stroke-width="1.1" fill="none" data-h="1"/><path d="M369.6 249.35 L381.02 237.94" stroke="#000" stroke-width="1.1" fill="none" data-h="1"/><path d="M376.6 249.35 L388.02 237.94" stroke="#000" stroke-width="1.1" fill="none" data-h="1"/><path d="M383.6 249.35 L395.02 237.94" stroke="#000" stroke-width="1.1" fill="none" data-h="1"/></g><rect x="360.02" y="237.94" width="22.98" height="11.41" fill="none" stroke="#000" stroke-width="1.09"/><rect x="383" y="237.94" width="22.16" height="11.41" fill="#fff" stroke="#000" stroke-width="1.09"/><text x="258.33" y="248.35" font-size="12" text-anchor="start" font-weight="normal" font-family="'Hiragino Sans','Hiragino Kaku Gothic ProN','Yu Gothic','Meiryo',sans-serif" fill="#000">20〜24</text><defs><clipPath id="hc433"><rect x="358.38" y="224.53" width="24.62" height="11.41" fill="#fff" stroke="none"/></clipPath></defs><rect x="358.38" y="224.53" width="24.62" height="11.41" fill="#fff" stroke="none"/><g clip-path="url(#hc433)"><path d="M346.96 235.94 L358.38 224.53" stroke="#000" stroke-width="1.1" fill="none" data-h="1"/><path d="M353.96 235.94 L365.38 224.53" stroke="#000" stroke-width="1.1" fill="none" data-h="1"/><path d="M360.96 235.94 L372.38 224.53" stroke="#000" stroke-width="1.1" fill="none" data-h="1"/><path d="M367.96 235.94 L379.38 224.53" stroke="#000" stroke-width="1.1" fill="none" data-h="1"/><path d="M374.96 235.94 L386.38 224.53" stroke="#000" stroke-width="1.1" fill="none" data-h="1"/><path d="M381.96 235.94 L393.38 224.53" stroke="#000" stroke-width="1.1" fill="none" data-h="1"/><path d="M388.96 235.94 L400.38 224.53" stroke="#000" stroke-width="1.1" fill="none" data-h="1"/></g><rect x="358.38" y="224.53" width="24.62" height="11.41" fill="none" stroke="#000" stroke-width="1.09"/><rect x="383" y="224.53" width="23.8" height="11.41" fill="#fff" stroke="#000" stroke-width="1.09"/><defs><clipPath id="hc434"><rect x="356.73" y="211.12" width="26.27" height="11.41" fill="#fff" stroke="none"/></clipPath></defs><rect x="356.73" y="211.12" width="26.27" height="11.41" fill="#fff" stroke="none"/><g clip-path="url(#hc434)"><path d="M345.32 222.53 L356.73 211.12" stroke="#000" stroke-width="1.1" fill="none" data-h="1"/><path d="M352.32 222.53 L363.73 211.12" stroke="#000" stroke-width="1.1" fill="none" data-h="1"/><path d="M359.32 222.53 L370.73 211.12" stroke="#000" stroke-width="1.1" fill="none" data-h="1"/><path d="M366.32 222.53 L377.73 211.12" stroke="#000" stroke-width="1.1" fill="none" data-h="1"/><path d="M373.32 222.53 L384.73 211.12" stroke="#000" stroke-width="1.1" fill="none" data-h="1"/><path d="M380.32 222.53 L391.73 211.12" stroke="#000" stroke-width="1.1" fill="none" data-h="1"/><path d="M387.32 222.53 L398.73 211.12" stroke="#000" stroke-width="1.1" fill="none" data-h="1"/></g><rect x="356.73" y="211.12" width="26.27" height="11.41" fill="none" stroke="#000" stroke-width="1.09"/><rect x="383" y="211.12" width="25.45" height="11.41" fill="#fff" stroke="#000" stroke-width="1.09"/><defs><clipPath id="hc435"><rect x="354.27" y="197.71" width="28.73" height="11.41" fill="#fff" stroke="none"/></clipPath></defs><rect x="354.27" y="197.71" width="28.73" height="11.41" fill="#fff" stroke="none"/><g clip-path="url(#hc435)"><path d="M342.86 209.12 L354.27 197.71" stroke="#000" stroke-width="1.1" fill="none" data-h="1"/><path d="M349.86 209.12 L361.27 197.71" stroke="#000" stroke-width="1.1" fill="none" data-h="1"/><path d="M356.86 209.12 L368.27 197.71" stroke="#000" stroke-width="1.1" fill="none" data-h="1"/><path d="M363.86 209.12 L375.27 197.71" stroke="#000" stroke-width="1.1" fill="none" data-h="1"/><path d="M370.86 209.12 L382.27 197.71" stroke="#000" stroke-width="1.1" fill="none" data-h="1"/><path d="M377.86 209.12 L389.27 197.71" stroke="#000" stroke-width="1.1" fill="none" data-h="1"/><path d="M384.86 209.12 L396.27 197.71" stroke="#000" stroke-width="1.1" fill="none" data-h="1"/></g><rect x="354.27" y="197.71" width="28.73" height="11.41" fill="none" stroke="#000" stroke-width="1.09"/><rect x="383" y="197.71" width="27.91" height="11.41" fill="#fff" stroke="#000" stroke-width="1.09"/><defs><clipPath id="hc436"><rect x="350.99" y="184.29" width="32.01" height="11.41" fill="#fff" stroke="none"/></clipPath></defs><rect x="350.99" y="184.29" width="32.01" height="11.41" fill="#fff" stroke="none"/><g clip-path="url(#hc436)"><path d="M339.58 195.71 L350.99 184.29" stroke="#000" stroke-width="1.1" fill="none" data-h="1"/><path d="M346.58 195.71 L357.99 184.29" stroke="#000" stroke-width="1.1" fill="none" data-h="1"/><path d="M353.58 195.71 L364.99 184.29" stroke="#000" stroke-width="1.1" fill="none" data-h="1"/><path d="M360.58 195.71 L371.99 184.29" stroke="#000" stroke-width="1.1" fill="none" data-h="1"/><path d="M367.58 195.71 L378.99 184.29" stroke="#000" stroke-width="1.1" fill="none" data-h="1"/><path d="M374.58 195.71 L385.99 184.29" stroke="#000" stroke-width="1.1" fill="none" data-h="1"/><path d="M381.58 195.71 L392.99 184.29" stroke="#000" stroke-width="1.1" fill="none" data-h="1"/><path d="M388.58 195.71 L399.99 184.29" stroke="#000" stroke-width="1.1" fill="none" data-h="1"/></g><rect x="350.99" y="184.29" width="32.01" height="11.41" fill="none" stroke="#000" stroke-width="1.09"/><rect x="383" y="184.29" width="31.19" height="11.41" fill="#fff" stroke="#000" stroke-width="1.09"/><text x="258.33" y="194.71" font-size="12" text-anchor="start" font-weight="normal" font-family="'Hiragino Sans','Hiragino Kaku Gothic ProN','Yu Gothic','Meiryo',sans-serif" fill="#000">40〜44</text><defs><clipPath id="hc437"><rect x="350.17" y="170.88" width="32.83" height="11.41" fill="#fff" stroke="none"/></clipPath></defs><rect x="350.17" y="170.88" width="32.83" height="11.41" fill="#fff" stroke="none"/><g clip-path="url(#hc437)"><path d="M338.75 182.29 L350.17 170.88" stroke="#000" stroke-width="1.1" fill="none" data-h="1"/><path d="M345.75 182.29 L357.17 170.88" stroke="#000" stroke-width="1.1" fill="none" data-h="1"/><path d="M352.75 182.29 L364.17 170.88" stroke="#000" stroke-width="1.1" fill="none" data-h="1"/><path d="M359.75 182.29 L371.17 170.88" stroke="#000" stroke-width="1.1" fill="none" data-h="1"/><path d="M366.75 182.29 L378.17 170.88" stroke="#000" stroke-width="1.1" fill="none" data-h="1"/><path d="M373.75 182.29 L385.17 170.88" stroke="#000" stroke-width="1.1" fill="none" data-h="1"/><path d="M380.75 182.29 L392.17 170.88" stroke="#000" stroke-width="1.1" fill="none" data-h="1"/><path d="M387.75 182.29 L399.17 170.88" stroke="#000" stroke-width="1.1" fill="none" data-h="1"/></g><rect x="350.17" y="170.88" width="32.83" height="11.41" fill="none" stroke="#000" stroke-width="1.09"/><rect x="383" y="170.88" width="32.83" height="11.41" fill="#fff" stroke="#000" stroke-width="1.09"/><defs><clipPath id="hc438"><rect x="351.81" y="157.47" width="31.19" height="11.41" fill="#fff" stroke="none"/></clipPath></defs><rect x="351.81" y="157.47" width="31.19" height="11.41" fill="#fff" stroke="none"/><g clip-path="url(#hc438)"><path d="M340.4 168.88 L351.81 157.47" stroke="#000" stroke-width="1.1" fill="none" data-h="1"/><path d="M347.4 168.88 L358.81 157.47" stroke="#000" stroke-width="1.1" fill="none" data-h="1"/><path d="M354.4 168.88 L365.81 157.47" stroke="#000" stroke-width="1.1" fill="none" data-h="1"/><path d="M361.4 168.88 L372.81 157.47" stroke="#000" stroke-width="1.1" fill="none" data-h="1"/><path d="M368.4 168.88 L379.81 157.47" stroke="#000" stroke-width="1.1" fill="none" data-h="1"/><path d="M375.4 168.88 L386.81 157.47" stroke="#000" stroke-width="1.1" fill="none" data-h="1"/><path d="M382.4 168.88 L393.81 157.47" stroke="#000" stroke-width="1.1" fill="none" data-h="1"/><path d="M389.4 168.88 L400.81 157.47" stroke="#000" stroke-width="1.1" fill="none" data-h="1"/></g><rect x="351.81" y="157.47" width="31.19" height="11.41" fill="none" stroke="#000" stroke-width="1.09"/><rect x="383" y="157.47" width="32.01" height="11.41" fill="#fff" stroke="#000" stroke-width="1.09"/><defs><clipPath id="hc439"><rect x="354.27" y="144.06" width="28.73" height="11.41" fill="#fff" stroke="none"/></clipPath></defs><rect x="354.27" y="144.06" width="28.73" height="11.41" fill="#fff" stroke="none"/><g clip-path="url(#hc439)"><path d="M342.86 155.47 L354.27 144.06" stroke="#000" stroke-width="1.1" fill="none" data-h="1"/><path d="M349.86 155.47 L361.27 144.06" stroke="#000" stroke-width="1.1" fill="none" data-h="1"/><path d="M356.86 155.47 L368.27 144.06" stroke="#000" stroke-width="1.1" fill="none" data-h="1"/><path d="M363.86 155.47 L375.27 144.06" stroke="#000" stroke-width="1.1" fill="none" data-h="1"/><path d="M370.86 155.47 L382.27 144.06" stroke="#000" stroke-width="1.1" fill="none" data-h="1"/><path d="M377.86 155.47 L389.27 144.06" stroke="#000" stroke-width="1.1" fill="none" data-h="1"/><path d="M384.86 155.47 L396.27 144.06" stroke="#000" stroke-width="1.1" fill="none" data-h="1"/></g><rect x="354.27" y="144.06" width="28.73" height="11.41" fill="none" stroke="#000" stroke-width="1.09"/><rect x="383" y="144.06" width="29.55" height="11.41" fill="#fff" stroke="#000" stroke-width="1.09"/><defs><clipPath id="hc440"><rect x="355.91" y="130.65" width="27.09" height="11.41" fill="#fff" stroke="none"/></clipPath></defs><rect x="355.91" y="130.65" width="27.09" height="11.41" fill="#fff" stroke="none"/><g clip-path="url(#hc440)"><path d="M344.5 142.06 L355.91 130.65" stroke="#000" stroke-width="1.1" fill="none" data-h="1"/><path d="M351.5 142.06 L362.91 130.65" stroke="#000" stroke-width="1.1" fill="none" data-h="1"/><path d="M358.5 142.06 L369.91 130.65" stroke="#000" stroke-width="1.1" fill="none" data-h="1"/><path d="M365.5 142.06 L376.91 130.65" stroke="#000" stroke-width="1.1" fill="none" data-h="1"/><path d="M372.5 142.06 L383.91 130.65" stroke="#000" stroke-width="1.1" fill="none" data-h="1"/><path d="M379.5 142.06 L390.91 130.65" stroke="#000" stroke-width="1.1" fill="none" data-h="1"/><path d="M386.5 142.06 L397.91 130.65" stroke="#000" stroke-width="1.1" fill="none" data-h="1"/></g><rect x="355.91" y="130.65" width="27.09" height="11.41" fill="none" stroke="#000" stroke-width="1.09"/><rect x="383" y="130.65" width="28.73" height="11.41" fill="#fff" stroke="#000" stroke-width="1.09"/><text x="258.33" y="141.06" font-size="12" text-anchor="start" font-weight="normal" font-family="'Hiragino Sans','Hiragino Kaku Gothic ProN','Yu Gothic','Meiryo',sans-serif" fill="#000">60〜64</text><defs><clipPath id="hc441"><rect x="357.55" y="117.24" width="25.45" height="11.41" fill="#fff" stroke="none"/></clipPath></defs><rect x="357.55" y="117.24" width="25.45" height="11.41" fill="#fff" stroke="none"/><g clip-path="url(#hc441)"><path d="M346.14 128.65 L357.55 117.24" stroke="#000" stroke-width="1.1" fill="none" data-h="1"/><path d="M353.14 128.65 L364.55 117.24" stroke="#000" stroke-width="1.1" fill="none" data-h="1"/><path d="M360.14 128.65 L371.55 117.24" stroke="#000" stroke-width="1.1" fill="none" data-h="1"/><path d="M367.14 128.65 L378.55 117.24" stroke="#000" stroke-width="1.1" fill="none" data-h="1"/><path d="M374.14 128.65 L385.55 117.24" stroke="#000" stroke-width="1.1" fill="none" data-h="1"/><path d="M381.14 128.65 L392.55 117.24" stroke="#000" stroke-width="1.1" fill="none" data-h="1"/><path d="M388.14 128.65 L399.55 117.24" stroke="#000" stroke-width="1.1" fill="none" data-h="1"/></g><rect x="357.55" y="117.24" width="25.45" height="11.41" fill="none" stroke="#000" stroke-width="1.09"/><rect x="383" y="117.24" width="27.09" height="11.41" fill="#fff" stroke="#000" stroke-width="1.09"/><defs><clipPath id="hc442"><rect x="360.84" y="103.82" width="22.16" height="11.41" fill="#fff" stroke="none"/></clipPath></defs><rect x="360.84" y="103.82" width="22.16" height="11.41" fill="#fff" stroke="none"/><g clip-path="url(#hc442)"><path d="M349.43 115.24 L360.84 103.82" stroke="#000" stroke-width="1.1" fill="none" data-h="1"/><path d="M356.43 115.24 L367.84 103.82" stroke="#000" stroke-width="1.1" fill="none" data-h="1"/><path d="M363.43 115.24 L374.84 103.82" stroke="#000" stroke-width="1.1" fill="none" data-h="1"/><path d="M370.43 115.24 L381.84 103.82" stroke="#000" stroke-width="1.1" fill="none" data-h="1"/><path d="M377.43 115.24 L388.84 103.82" stroke="#000" stroke-width="1.1" fill="none" data-h="1"/><path d="M384.43 115.24 L395.84 103.82" stroke="#000" stroke-width="1.1" fill="none" data-h="1"/></g><rect x="360.84" y="103.82" width="22.16" height="11.41" fill="none" stroke="#000" stroke-width="1.09"/><rect x="383" y="103.82" width="25.45" height="11.41" fill="#fff" stroke="#000" stroke-width="1.09"/><defs><clipPath id="hc443"><rect x="367.4" y="90.41" width="15.6" height="11.41" fill="#fff" stroke="none"/></clipPath></defs><rect x="367.4" y="90.41" width="15.6" height="11.41" fill="#fff" stroke="none"/><g clip-path="url(#hc443)"><path d="M355.99 101.82 L367.4 90.41" stroke="#000" stroke-width="1.1" fill="none" data-h="1"/><path d="M362.99 101.82 L374.4 90.41" stroke="#000" stroke-width="1.1" fill="none" data-h="1"/><path d="M369.99 101.82 L381.4 90.41" stroke="#000" stroke-width="1.1" fill="none" data-h="1"/><path d="M376.99 101.82 L388.4 90.41" stroke="#000" stroke-width="1.1" fill="none" data-h="1"/><path d="M383.99 101.82 L395.4 90.41" stroke="#000" stroke-width="1.1" fill="none" data-h="1"/></g><rect x="367.4" y="90.41" width="15.6" height="11.41" fill="none" stroke="#000" stroke-width="1.09"/><rect x="383" y="90.41" width="21.34" height="11.41" fill="#fff" stroke="#000" stroke-width="1.09"/><defs><clipPath id="hc444"><rect x="372.33" y="77" width="10.67" height="11.41" fill="#fff" stroke="none"/></clipPath></defs><rect x="372.33" y="77" width="10.67" height="11.41" fill="#fff" stroke="none"/><g clip-path="url(#hc444)"><path d="M360.92 88.41 L372.33 77" stroke="#000" stroke-width="1.1" fill="none" data-h="1"/><path d="M367.92 88.41 L379.33 77" stroke="#000" stroke-width="1.1" fill="none" data-h="1"/><path d="M374.92 88.41 L386.33 77" stroke="#000" stroke-width="1.1" fill="none" data-h="1"/><path d="M381.92 88.41 L393.33 77" stroke="#000" stroke-width="1.1" fill="none" data-h="1"/><path d="M388.92 88.41 L400.33 77" stroke="#000" stroke-width="1.1" fill="none" data-h="1"/></g><rect x="372.33" y="77" width="10.67" height="11.41" fill="none" stroke="#000" stroke-width="1.09"/><rect x="383" y="77" width="18.88" height="11.41" fill="#fff" stroke="#000" stroke-width="1.09"/><text x="258.33" y="87.41" font-size="12" text-anchor="start" font-weight="normal" font-family="'Hiragino Sans','Hiragino Kaku Gothic ProN','Yu Gothic','Meiryo',sans-serif" fill="#000">80以上</text><path d="M383 76 L383 304" stroke="#000" stroke-width="1.36" fill="none"/><path d="M311.33 304 L454.67 304" stroke="#000" stroke-width="1.36" fill="none"/><path d="M366.58 304 L366.58 309" stroke="#000" stroke-width="1.09" fill="none"/><text x="366.58" y="321" font-size="11" text-anchor="middle" font-weight="normal" font-family="'Hiragino Sans','Hiragino Kaku Gothic ProN','Yu Gothic','Meiryo',sans-serif" fill="#000">2</text><path d="M399.42 304 L399.42 309" stroke="#000" stroke-width="1.09" fill="none"/><text x="399.42" y="321" font-size="11" text-anchor="middle" font-weight="normal" font-family="'Hiragino Sans','Hiragino Kaku Gothic ProN','Yu Gothic','Meiryo',sans-serif" fill="#000">2</text><path d="M350.17 304 L350.17 309" stroke="#000" stroke-width="1.09" fill="none"/><text x="350.17" y="321" font-size="11" text-anchor="middle" font-weight="normal" font-family="'Hiragino Sans','Hiragino Kaku Gothic ProN','Yu Gothic','Meiryo',sans-serif" fill="#000">4</text><path d="M415.83 304 L415.83 309" stroke="#000" stroke-width="1.09" fill="none"/><text x="415.83" y="321" font-size="11" text-anchor="middle" font-weight="normal" font-family="'Hiragino Sans','Hiragino Kaku Gothic ProN','Yu Gothic','Meiryo',sans-serif" fill="#000">4</text><path d="M333.75 304 L333.75 309" stroke="#000" stroke-width="1.09" fill="none"/><text x="333.75" y="321" font-size="11" text-anchor="middle" font-weight="normal" font-family="'Hiragino Sans','Hiragino Kaku Gothic ProN','Yu Gothic','Meiryo',sans-serif" fill="#000">6</text><path d="M432.25 304 L432.25 309" stroke="#000" stroke-width="1.09" fill="none"/><text x="432.25" y="321" font-size="11" text-anchor="middle" font-weight="normal" font-family="'Hiragino Sans','Hiragino Kaku Gothic ProN','Yu Gothic','Meiryo',sans-serif" fill="#000">6</text><path d="M317.33 304 L317.33 309" stroke="#000" stroke-width="1.09" fill="none"/><text x="317.33" y="321" font-size="11" text-anchor="middle" font-weight="normal" font-family="'Hiragino Sans','Hiragino Kaku Gothic ProN','Yu Gothic','Meiryo',sans-serif" fill="#000">8</text><path d="M448.67 304 L448.67 309" stroke="#000" stroke-width="1.09" fill="none"/><text x="448.67" y="321" font-size="11" text-anchor="middle" font-weight="normal" font-family="'Hiragino Sans','Hiragino Kaku Gothic ProN','Yu Gothic','Meiryo',sans-serif" fill="#000">8</text><text x="258.33" y="338" font-size="11" text-anchor="start" font-weight="normal" font-family="'Hiragino Sans','Hiragino Kaku Gothic ProN','Yu Gothic','Meiryo',sans-serif" fill="#000">男（％）</text><text x="461.67" y="338" font-size="11" text-anchor="end" font-weight="normal" font-family="'Hiragino Sans','Hiragino Kaku Gothic ProN','Yu Gothic','Meiryo',sans-serif" fill="#000">女（％）</text>
<text x="20" y="382" font-size="11" text-anchor="start" font-weight="normal" font-family="'Hiragino Sans','Hiragino Kaku Gothic ProN','Yu Gothic','Meiryo',sans-serif" fill="#000">※ 訓練用に作成した架空の数値であり、実在の地点・国ではない。</text>
</svg>
