<svg xmlns="http://www.w3.org/2000/svg" viewBox="0 0 720 394" width="720" height="394" role="img" aria-label="資料1　架空の2か国の人口ピラミッド"><defs>
 <pattern id="pDiag" width="8" height="8" patternUnits="userSpaceOnUse">
  <rect width="8" height="8" fill="#fff"/><path d="M0 8 L8 0" stroke="#000" stroke-width="1.4"/></pattern>
 <pattern id="pDiag2" width="8" height="8" patternUnits="userSpaceOnUse">
  <rect width="8" height="8" fill="#fff"/><path d="M0 0 L8 8" stroke="#000" stroke-width="1.4"/></pattern>
 <pattern id="pDot" width="8" height="8" patternUnits="userSpaceOnUse">
  <rect width="8" height="8" fill="#fff"/><circle cx="2" cy="2" r="1.3" fill="#000"/>
  <circle cx="6" cy="6" r="1.3" fill="#000"/></pattern>
 <pattern id="pDotFine" width="5" height="5" patternUnits="userSpaceOnUse">
  <rect width="5" height="5" fill="#fff"/><circle cx="1.4" cy="1.4" r="0.9" fill="#000"/></pattern>
 <pattern id="pGrid" width="8" height="8" patternUnits="userSpaceOnUse">
  <rect width="8" height="8" fill="#fff"/>
  <path d="M0 4 H8 M4 0 V8" stroke="#000" stroke-width="0.9"/></pattern>
 <pattern id="pWave" width="10" height="8" patternUnits="userSpaceOnUse">
  <rect width="10" height="8" fill="#fff"/>
  <path d="M0 5 q2.5 -3 5 0 t5 0" stroke="#000" stroke-width="0.9" fill="none"/></pattern>
</defs><rect width="720" height="394" fill="#fff"/>
<text x="20" y="26" font-size="16" text-anchor="start" font-weight="bold" font-family="'Hiragino Sans','Hiragino Kaku Gothic ProN','Yu Gothic','Meiryo',sans-serif" fill="#000">資料1　架空の2か国の人口ピラミッド</text>
<rect x="20" y="44" width="213.33" height="300" fill="none" stroke="#000" stroke-width="1.2"/><text x="126.67" y="64" font-size="14" text-anchor="middle" font-weight="bold" font-family="'Hiragino Sans','Hiragino Kaku Gothic ProN','Yu Gothic','Meiryo',sans-serif" fill="#000">A国</text><defs><clipPath id="hc189"><rect x="51.92" y="304.76" width="74.75" height="12.24" fill="#fff" stroke="none"/></clipPath></defs><rect x="51.92" y="304.76" width="74.75" height="12.24" fill="#fff" stroke="none"/><g clip-path="url(#hc189)"><path d="M39.68 317 L51.92 304.76" stroke="#000" stroke-width="1.1" fill="none"/><path d="M46.68 317 L58.92 304.76" stroke="#000" stroke-width="1.1" fill="none"/><path d="M53.68 317 L65.92 304.76" stroke="#000" stroke-width="1.1" fill="none"/><path d="M60.68 317 L72.92 304.76" stroke="#000" stroke-width="1.1" fill="none"/><path d="M67.68 317 L79.92 304.76" stroke="#000" stroke-width="1.1" fill="none"/><path d="M74.68 317 L86.92 304.76" stroke="#000" stroke-width="1.1" fill="none"/><path d="M81.68 317 L93.92 304.76" stroke="#000" stroke-width="1.1" fill="none"/><path d="M88.68 317 L100.92 304.76" stroke="#000" stroke-width="1.1" fill="none"/><path d="M95.68 317 L107.92 304.76" stroke="#000" stroke-width="1.1" fill="none"/><path d="M102.68 317 L114.92 304.76" stroke="#000" stroke-width="1.1" fill="none"/><path d="M109.68 317 L121.92 304.76" stroke="#000" stroke-width="1.1" fill="none"/><path d="M116.68 317 L128.92 304.76" stroke="#000" stroke-width="1.1" fill="none"/><path d="M123.68 317 L135.92 304.76" stroke="#000" stroke-width="1.1" fill="none"/><path d="M130.68 317 L142.92 304.76" stroke="#000" stroke-width="1.1" fill="none"/></g><rect x="51.92" y="304.76" width="74.75" height="12.24" fill="none" stroke="#000" stroke-width="0.8"/><rect x="126.67" y="304.76" width="71.88" height="12.24" fill="#fff" stroke="#000" stroke-width="0.8"/><text x="126.67" y="316" font-size="7.5" text-anchor="middle" font-weight="normal" font-family="'Hiragino Sans','Hiragino Kaku Gothic ProN','Yu Gothic','Meiryo',sans-serif" fill="#000">0〜4</text><defs><clipPath id="hc190"><rect x="60.54" y="290.53" width="66.13" height="12.24" fill="#fff" stroke="none"/></clipPath></defs><rect x="60.54" y="290.53" width="66.13" height="12.24" fill="#fff" stroke="none"/><g clip-path="url(#hc190)"><path d="M48.31 302.76 L60.54 290.53" stroke="#000" stroke-width="1.1" fill="none"/><path d="M55.31 302.76 L67.54 290.53" stroke="#000" stroke-width="1.1" fill="none"/><path d="M62.31 302.76 L74.54 290.53" stroke="#000" stroke-width="1.1" fill="none"/><path d="M69.31 302.76 L81.54 290.53" stroke="#000" stroke-width="1.1" fill="none"/><path d="M76.31 302.76 L88.54 290.53" stroke="#000" stroke-width="1.1" fill="none"/><path d="M83.31 302.76 L95.54 290.53" stroke="#000" stroke-width="1.1" fill="none"/><path d="M90.31 302.76 L102.54 290.53" stroke="#000" stroke-width="1.1" fill="none"/><path d="M97.31 302.76 L109.54 290.53" stroke="#000" stroke-width="1.1" fill="none"/><path d="M104.31 302.76 L116.54 290.53" stroke="#000" stroke-width="1.1" fill="none"/><path d="M111.31 302.76 L123.54 290.53" stroke="#000" stroke-width="1.1" fill="none"/><path d="M118.31 302.76 L130.54 290.53" stroke="#000" stroke-width="1.1" fill="none"/><path d="M125.31 302.76 L137.54 290.53" stroke="#000" stroke-width="1.1" fill="none"/><path d="M132.31 302.76 L144.54 290.53" stroke="#000" stroke-width="1.1" fill="none"/></g><rect x="60.54" y="290.53" width="66.13" height="12.24" fill="none" stroke="#000" stroke-width="0.8"/><rect x="126.67" y="290.53" width="64.21" height="12.24" fill="#fff" stroke="#000" stroke-width="0.8"/><defs><clipPath id="hc191"><rect x="68.21" y="276.29" width="58.46" height="12.24" fill="#fff" stroke="none"/></clipPath></defs><rect x="68.21" y="276.29" width="58.46" height="12.24" fill="#fff" stroke="none"/><g clip-path="url(#hc191)"><path d="M55.97 288.53 L68.21 276.29" stroke="#000" stroke-width="1.1" fill="none"/><path d="M62.97 288.53 L75.21 276.29" stroke="#000" stroke-width="1.1" fill="none"/><path d="M69.97 288.53 L82.21 276.29" stroke="#000" stroke-width="1.1" fill="none"/><path d="M76.97 288.53 L89.21 276.29" stroke="#000" stroke-width="1.1" fill="none"/><path d="M83.97 288.53 L96.21 276.29" stroke="#000" stroke-width="1.1" fill="none"/><path d="M90.97 288.53 L103.21 276.29" stroke="#000" stroke-width="1.1" fill="none"/><path d="M97.97 288.53 L110.21 276.29" stroke="#000" stroke-width="1.1" fill="none"/><path d="M104.97 288.53 L117.21 276.29" stroke="#000" stroke-width="1.1" fill="none"/><path d="M111.97 288.53 L124.21 276.29" stroke="#000" stroke-width="1.1" fill="none"/><path d="M118.97 288.53 L131.21 276.29" stroke="#000" stroke-width="1.1" fill="none"/><path d="M125.97 288.53 L138.21 276.29" stroke="#000" stroke-width="1.1" fill="none"/><path d="M132.97 288.53 L145.21 276.29" stroke="#000" stroke-width="1.1" fill="none"/></g><rect x="68.21" y="276.29" width="58.46" height="12.24" fill="none" stroke="#000" stroke-width="0.8"/><rect x="126.67" y="276.29" width="56.54" height="12.24" fill="#fff" stroke="#000" stroke-width="0.8"/><text x="126.67" y="287.53" font-size="7.5" text-anchor="middle" font-weight="normal" font-family="'Hiragino Sans','Hiragino Kaku Gothic ProN','Yu Gothic','Meiryo',sans-serif" fill="#000">10〜14</text><defs><clipPath id="hc192"><rect x="74.92" y="262.06" width="51.75" height="12.24" fill="#fff" stroke="none"/></clipPath></defs><rect x="74.92" y="262.06" width="51.75" height="12.24" fill="#fff" stroke="none"/><g clip-path="url(#hc192)"><path d="M62.68 274.29 L74.92 262.06" stroke="#000" stroke-width="1.1" fill="none"/><path d="M69.68 274.29 L81.92 262.06" stroke="#000" stroke-width="1.1" fill="none"/><path d="M76.68 274.29 L88.92 262.06" stroke="#000" stroke-width="1.1" fill="none"/><path d="M83.68 274.29 L95.92 262.06" stroke="#000" stroke-width="1.1" fill="none"/><path d="M90.68 274.29 L102.92 262.06" stroke="#000" stroke-width="1.1" fill="none"/><path d="M97.68 274.29 L109.92 262.06" stroke="#000" stroke-width="1.1" fill="none"/><path d="M104.68 274.29 L116.92 262.06" stroke="#000" stroke-width="1.1" fill="none"/><path d="M111.68 274.29 L123.92 262.06" stroke="#000" stroke-width="1.1" fill="none"/><path d="M118.68 274.29 L130.92 262.06" stroke="#000" stroke-width="1.1" fill="none"/><path d="M125.68 274.29 L137.92 262.06" stroke="#000" stroke-width="1.1" fill="none"/><path d="M132.68 274.29 L144.92 262.06" stroke="#000" stroke-width="1.1" fill="none"/></g><rect x="74.92" y="262.06" width="51.75" height="12.24" fill="none" stroke="#000" stroke-width="0.8"/><rect x="126.67" y="262.06" width="49.83" height="12.24" fill="#fff" stroke="#000" stroke-width="0.8"/><defs><clipPath id="hc193"><rect x="82.58" y="247.82" width="44.08" height="12.24" fill="#fff" stroke="none"/></clipPath></defs><rect x="82.58" y="247.82" width="44.08" height="12.24" fill="#fff" stroke="none"/><g clip-path="url(#hc193)"><path d="M70.35 260.06 L82.58 247.82" stroke="#000" stroke-width="1.1" fill="none"/><path d="M77.35 260.06 L89.58 247.82" stroke="#000" stroke-width="1.1" fill="none"/><path d="M84.35 260.06 L96.58 247.82" stroke="#000" stroke-width="1.1" fill="none"/><path d="M91.35 260.06 L103.58 247.82" stroke="#000" stroke-width="1.1" fill="none"/><path d="M98.35 260.06 L110.58 247.82" stroke="#000" stroke-width="1.1" fill="none"/><path d="M105.35 260.06 L117.58 247.82" stroke="#000" stroke-width="1.1" fill="none"/><path d="M112.35 260.06 L124.58 247.82" stroke="#000" stroke-width="1.1" fill="none"/><path d="M119.35 260.06 L131.58 247.82" stroke="#000" stroke-width="1.1" fill="none"/><path d="M126.35 260.06 L138.58 247.82" stroke="#000" stroke-width="1.1" fill="none"/><path d="M133.35 260.06 L145.58 247.82" stroke="#000" stroke-width="1.1" fill="none"/></g><rect x="82.58" y="247.82" width="44.08" height="12.24" fill="none" stroke="#000" stroke-width="0.8"/><rect x="126.67" y="247.82" width="43.12" height="12.24" fill="#fff" stroke="#000" stroke-width="0.8"/><text x="126.67" y="259.06" font-size="7.5" text-anchor="middle" font-weight="normal" font-family="'Hiragino Sans','Hiragino Kaku Gothic ProN','Yu Gothic','Meiryo',sans-serif" fill="#000">20〜24</text><defs><clipPath id="hc194"><rect x="88.33" y="233.59" width="38.33" height="12.24" fill="#fff" stroke="none"/></clipPath></defs><rect x="88.33" y="233.59" width="38.33" height="12.24" fill="#fff" stroke="none"/><g clip-path="url(#hc194)"><path d="M76.1 245.82 L88.33 233.59" stroke="#000" stroke-width="1.1" fill="none"/><path d="M83.1 245.82 L95.33 233.59" stroke="#000" stroke-width="1.1" fill="none"/><path d="M90.1 245.82 L102.33 233.59" stroke="#000" stroke-width="1.1" fill="none"/><path d="M97.1 245.82 L109.33 233.59" stroke="#000" stroke-width="1.1" fill="none"/><path d="M104.1 245.82 L116.33 233.59" stroke="#000" stroke-width="1.1" fill="none"/><path d="M111.1 245.82 L123.33 233.59" stroke="#000" stroke-width="1.1" fill="none"/><path d="M118.1 245.82 L130.33 233.59" stroke="#000" stroke-width="1.1" fill="none"/><path d="M125.1 245.82 L137.33 233.59" stroke="#000" stroke-width="1.1" fill="none"/><path d="M132.1 245.82 L144.33 233.59" stroke="#000" stroke-width="1.1" fill="none"/></g><rect x="88.33" y="233.59" width="38.33" height="12.24" fill="none" stroke="#000" stroke-width="0.8"/><rect x="126.67" y="233.59" width="37.38" height="12.24" fill="#fff" stroke="#000" stroke-width="0.8"/><defs><clipPath id="hc195"><rect x="94.08" y="219.35" width="32.58" height="12.24" fill="#fff" stroke="none"/></clipPath></defs><rect x="94.08" y="219.35" width="32.58" height="12.24" fill="#fff" stroke="none"/><g clip-path="url(#hc195)"><path d="M81.85 231.59 L94.08 219.35" stroke="#000" stroke-width="1.1" fill="none"/><path d="M88.85 231.59 L101.08 219.35" stroke="#000" stroke-width="1.1" fill="none"/><path d="M95.85 231.59 L108.08 219.35" stroke="#000" stroke-width="1.1" fill="none"/><path d="M102.85 231.59 L115.08 219.35" stroke="#000" stroke-width="1.1" fill="none"/><path d="M109.85 231.59 L122.08 219.35" stroke="#000" stroke-width="1.1" fill="none"/><path d="M116.85 231.59 L129.08 219.35" stroke="#000" stroke-width="1.1" fill="none"/><path d="M123.85 231.59 L136.08 219.35" stroke="#000" stroke-width="1.1" fill="none"/><path d="M130.85 231.59 L143.08 219.35" stroke="#000" stroke-width="1.1" fill="none"/></g><rect x="94.08" y="219.35" width="32.58" height="12.24" fill="none" stroke="#000" stroke-width="0.8"/><rect x="126.67" y="219.35" width="32.58" height="12.24" fill="#fff" stroke="#000" stroke-width="0.8"/><text x="126.67" y="230.59" font-size="7.5" text-anchor="middle" font-weight="normal" font-family="'Hiragino Sans','Hiragino Kaku Gothic ProN','Yu Gothic','Meiryo',sans-serif" fill="#000">30〜34</text><defs><clipPath id="hc196"><rect x="99.83" y="205.12" width="26.83" height="12.24" fill="#fff" stroke="none"/></clipPath></defs><rect x="99.83" y="205.12" width="26.83" height="12.24" fill="#fff" stroke="none"/><g clip-path="url(#hc196)"><path d="M87.6 217.35 L99.83 205.12" stroke="#000" stroke-width="1.1" fill="none"/><path d="M94.6 217.35 L106.83 205.12" stroke="#000" stroke-width="1.1" fill="none"/><path d="M101.6 217.35 L113.83 205.12" stroke="#000" stroke-width="1.1" fill="none"/><path d="M108.6 217.35 L120.83 205.12" stroke="#000" stroke-width="1.1" fill="none"/><path d="M115.6 217.35 L127.83 205.12" stroke="#000" stroke-width="1.1" fill="none"/><path d="M122.6 217.35 L134.83 205.12" stroke="#000" stroke-width="1.1" fill="none"/><path d="M129.6 217.35 L141.83 205.12" stroke="#000" stroke-width="1.1" fill="none"/></g><rect x="99.83" y="205.12" width="26.83" height="12.24" fill="none" stroke="#000" stroke-width="0.8"/><rect x="126.67" y="205.12" width="26.83" height="12.24" fill="#fff" stroke="#000" stroke-width="0.8"/><defs><clipPath id="hc197"><rect x="104.62" y="190.88" width="22.04" height="12.24" fill="#fff" stroke="none"/></clipPath></defs><rect x="104.62" y="190.88" width="22.04" height="12.24" fill="#fff" stroke="none"/><g clip-path="url(#hc197)"><path d="M92.39 203.12 L104.62 190.88" stroke="#000" stroke-width="1.1" fill="none"/><path d="M99.39 203.12 L111.62 190.88" stroke="#000" stroke-width="1.1" fill="none"/><path d="M106.39 203.12 L118.62 190.88" stroke="#000" stroke-width="1.1" fill="none"/><path d="M113.39 203.12 L125.62 190.88" stroke="#000" stroke-width="1.1" fill="none"/><path d="M120.39 203.12 L132.62 190.88" stroke="#000" stroke-width="1.1" fill="none"/><path d="M127.39 203.12 L139.62 190.88" stroke="#000" stroke-width="1.1" fill="none"/></g><rect x="104.62" y="190.88" width="22.04" height="12.24" fill="none" stroke="#000" stroke-width="0.8"/><rect x="126.67" y="190.88" width="24.92" height="12.24" fill="#fff" stroke="#000" stroke-width="0.8"/><text x="126.67" y="202.12" font-size="7.5" text-anchor="middle" font-weight="normal" font-family="'Hiragino Sans','Hiragino Kaku Gothic ProN','Yu Gothic','Meiryo',sans-serif" fill="#000">40〜44</text><defs><clipPath id="hc198"><rect x="108.46" y="176.65" width="18.21" height="12.24" fill="#fff" stroke="none"/></clipPath></defs><rect x="108.46" y="176.65" width="18.21" height="12.24" fill="#fff" stroke="none"/><g clip-path="url(#hc198)"><path d="M96.22 188.88 L108.46 176.65" stroke="#000" stroke-width="1.1" fill="none"/><path d="M103.22 188.88 L115.46 176.65" stroke="#000" stroke-width="1.1" fill="none"/><path d="M110.22 188.88 L122.46 176.65" stroke="#000" stroke-width="1.1" fill="none"/><path d="M117.22 188.88 L129.46 176.65" stroke="#000" stroke-width="1.1" fill="none"/><path d="M124.22 188.88 L136.46 176.65" stroke="#000" stroke-width="1.1" fill="none"/><path d="M131.22 188.88 L143.46 176.65" stroke="#000" stroke-width="1.1" fill="none"/></g><rect x="108.46" y="176.65" width="18.21" height="12.24" fill="none" stroke="#000" stroke-width="0.8"/><rect x="126.67" y="176.65" width="19.17" height="12.24" fill="#fff" stroke="#000" stroke-width="0.8"/><defs><clipPath id="hc199"><rect x="112.29" y="162.41" width="14.38" height="12.24" fill="#fff" stroke="none"/></clipPath></defs><rect x="112.29" y="162.41" width="14.38" height="12.24" fill="#fff" stroke="none"/><g clip-path="url(#hc199)"><path d="M100.06 174.65 L112.29 162.41" stroke="#000" stroke-width="1.1" fill="none"/><path d="M107.06 174.65 L119.29 162.41" stroke="#000" stroke-width="1.1" fill="none"/><path d="M114.06 174.65 L126.29 162.41" stroke="#000" stroke-width="1.1" fill="none"/><path d="M121.06 174.65 L133.29 162.41" stroke="#000" stroke-width="1.1" fill="none"/><path d="M128.06 174.65 L140.29 162.41" stroke="#000" stroke-width="1.1" fill="none"/></g><rect x="112.29" y="162.41" width="14.38" height="12.24" fill="none" stroke="#000" stroke-width="0.8"/><rect x="126.67" y="162.41" width="15.33" height="12.24" fill="#fff" stroke="#000" stroke-width="0.8"/><text x="126.67" y="173.65" font-size="7.5" text-anchor="middle" font-weight="normal" font-family="'Hiragino Sans','Hiragino Kaku Gothic ProN','Yu Gothic','Meiryo',sans-serif" fill="#000">50〜54</text><defs><clipPath id="hc200"><rect x="115.17" y="148.18" width="11.5" height="12.24" fill="#fff" stroke="none"/></clipPath></defs><rect x="115.17" y="148.18" width="11.5" height="12.24" fill="#fff" stroke="none"/><g clip-path="url(#hc200)"><path d="M102.93 160.41 L115.17 148.18" stroke="#000" stroke-width="1.1" fill="none"/><path d="M109.93 160.41 L122.17 148.18" stroke="#000" stroke-width="1.1" fill="none"/><path d="M116.93 160.41 L129.17 148.18" stroke="#000" stroke-width="1.1" fill="none"/><path d="M123.93 160.41 L136.17 148.18" stroke="#000" stroke-width="1.1" fill="none"/><path d="M130.93 160.41 L143.17 148.18" stroke="#000" stroke-width="1.1" fill="none"/></g><rect x="115.17" y="148.18" width="11.5" height="12.24" fill="none" stroke="#000" stroke-width="0.8"/><rect x="126.67" y="148.18" width="12.46" height="12.24" fill="#fff" stroke="#000" stroke-width="0.8"/><defs><clipPath id="hc201"><rect x="119" y="133.94" width="7.67" height="12.24" fill="#fff" stroke="none"/></clipPath></defs><rect x="119" y="133.94" width="7.67" height="12.24" fill="#fff" stroke="none"/><g clip-path="url(#hc201)"><path d="M106.76 146.18 L119 133.94" stroke="#000" stroke-width="1.1" fill="none"/><path d="M113.76 146.18 L126 133.94" stroke="#000" stroke-width="1.1" fill="none"/><path d="M120.76 146.18 L133 133.94" stroke="#000" stroke-width="1.1" fill="none"/><path d="M127.76 146.18 L140 133.94" stroke="#000" stroke-width="1.1" fill="none"/></g><rect x="119" y="133.94" width="7.67" height="12.24" fill="none" stroke="#000" stroke-width="0.8"/><rect x="126.67" y="133.94" width="8.62" height="12.24" fill="#fff" stroke="#000" stroke-width="0.8"/><text x="126.67" y="145.18" font-size="7.5" text-anchor="middle" font-weight="normal" font-family="'Hiragino Sans','Hiragino Kaku Gothic ProN','Yu Gothic','Meiryo',sans-serif" fill="#000">60〜64</text><defs><clipPath id="hc202"><rect x="120.92" y="119.71" width="5.75" height="12.24" fill="#fff" stroke="none"/></clipPath></defs><rect x="120.92" y="119.71" width="5.75" height="12.24" fill="#fff" stroke="none"/><g clip-path="url(#hc202)"><path d="M108.68 131.94 L120.92 119.71" stroke="#000" stroke-width="1.1" fill="none"/><path d="M115.68 131.94 L127.92 119.71" stroke="#000" stroke-width="1.1" fill="none"/><path d="M122.68 131.94 L134.92 119.71" stroke="#000" stroke-width="1.1" fill="none"/><path d="M129.68 131.94 L141.92 119.71" stroke="#000" stroke-width="1.1" fill="none"/></g><rect x="120.92" y="119.71" width="5.75" height="12.24" fill="none" stroke="#000" stroke-width="0.8"/><rect x="126.67" y="119.71" width="6.71" height="12.24" fill="#fff" stroke="#000" stroke-width="0.8"/><defs><clipPath id="hc203"><rect x="122.83" y="105.47" width="3.83" height="12.24" fill="#fff" stroke="none"/></clipPath></defs><rect x="122.83" y="105.47" width="3.83" height="12.24" fill="#fff" stroke="none"/><g clip-path="url(#hc203)"><path d="M110.6 117.71 L122.83 105.47" stroke="#000" stroke-width="1.1" fill="none"/><path d="M117.6 117.71 L129.83 105.47" stroke="#000" stroke-width="1.1" fill="none"/><path d="M124.6 117.71 L136.83 105.47" stroke="#000" stroke-width="1.1" fill="none"/><path d="M131.6 117.71 L143.83 105.47" stroke="#000" stroke-width="1.1" fill="none"/></g><rect x="122.83" y="105.47" width="3.83" height="12.24" fill="none" stroke="#000" stroke-width="0.8"/><rect x="126.67" y="105.47" width="4.79" height="12.24" fill="#fff" stroke="#000" stroke-width="0.8"/><text x="126.67" y="116.71" font-size="7.5" text-anchor="middle" font-weight="normal" font-family="'Hiragino Sans','Hiragino Kaku Gothic ProN','Yu Gothic','Meiryo',sans-serif" fill="#000">70〜74</text><defs><clipPath id="hc204"><rect x="124.75" y="91.24" width="1.92" height="12.24" fill="#fff" stroke="none"/></clipPath></defs><rect x="124.75" y="91.24" width="1.92" height="12.24" fill="#fff" stroke="none"/><g clip-path="url(#hc204)"><path d="M112.51 103.47 L124.75 91.24" stroke="#000" stroke-width="1.1" fill="none"/><path d="M119.51 103.47 L131.75 91.24" stroke="#000" stroke-width="1.1" fill="none"/><path d="M126.51 103.47 L138.75 91.24" stroke="#000" stroke-width="1.1" fill="none"/><path d="M133.51 103.47 L145.75 91.24" stroke="#000" stroke-width="1.1" fill="none"/></g><rect x="124.75" y="91.24" width="1.92" height="12.24" fill="none" stroke="#000" stroke-width="0.8"/><rect x="126.67" y="91.24" width="2.88" height="12.24" fill="#fff" stroke="#000" stroke-width="0.8"/><defs><clipPath id="hc205"><rect x="125.71" y="77" width="0.96" height="12.24" fill="#fff" stroke="none"/></clipPath></defs><rect x="125.71" y="77" width="0.96" height="12.24" fill="#fff" stroke="none"/><g clip-path="url(#hc205)"><path d="M113.47 89.24 L125.71 77" stroke="#000" stroke-width="1.1" fill="none"/><path d="M120.47 89.24 L132.71 77" stroke="#000" stroke-width="1.1" fill="none"/><path d="M127.47 89.24 L139.71 77" stroke="#000" stroke-width="1.1" fill="none"/></g><rect x="125.71" y="77" width="0.96" height="12.24" fill="none" stroke="#000" stroke-width="0.8"/><rect x="126.67" y="77" width="1.92" height="12.24" fill="#fff" stroke="#000" stroke-width="0.8"/><text x="126.67" y="88.24" font-size="7.5" text-anchor="middle" font-weight="normal" font-family="'Hiragino Sans','Hiragino Kaku Gothic ProN','Yu Gothic','Meiryo',sans-serif" fill="#000">80以上</text><path d="M126.67 76 L126.67 318" stroke="#000" stroke-width="1" fill="none"/><path d="M34 318 L219.33 318" stroke="#000" stroke-width="1" fill="none"/><path d="M107.5 318 L107.5 322" stroke="#000" stroke-width="0.8" fill="none"/><text x="107.5" y="333" font-size="9" text-anchor="middle" font-weight="normal" font-family="'Hiragino Sans','Hiragino Kaku Gothic ProN','Yu Gothic','Meiryo',sans-serif" fill="#000">2</text><path d="M145.83 318 L145.83 322" stroke="#000" stroke-width="0.8" fill="none"/><text x="145.83" y="333" font-size="9" text-anchor="middle" font-weight="normal" font-family="'Hiragino Sans','Hiragino Kaku Gothic ProN','Yu Gothic','Meiryo',sans-serif" fill="#000">2</text><path d="M88.33 318 L88.33 322" stroke="#000" stroke-width="0.8" fill="none"/><text x="88.33" y="333" font-size="9" text-anchor="middle" font-weight="normal" font-family="'Hiragino Sans','Hiragino Kaku Gothic ProN','Yu Gothic','Meiryo',sans-serif" fill="#000">4</text><path d="M165 318 L165 322" stroke="#000" stroke-width="0.8" fill="none"/><text x="165" y="333" font-size="9" text-anchor="middle" font-weight="normal" font-family="'Hiragino Sans','Hiragino Kaku Gothic ProN','Yu Gothic','Meiryo',sans-serif" fill="#000">4</text><path d="M69.17 318 L69.17 322" stroke="#000" stroke-width="0.8" fill="none"/><text x="69.17" y="333" font-size="9" text-anchor="middle" font-weight="normal" font-family="'Hiragino Sans','Hiragino Kaku Gothic ProN','Yu Gothic','Meiryo',sans-serif" fill="#000">6</text><path d="M184.17 318 L184.17 322" stroke="#000" stroke-width="0.8" fill="none"/><text x="184.17" y="333" font-size="9" text-anchor="middle" font-weight="normal" font-family="'Hiragino Sans','Hiragino Kaku Gothic ProN','Yu Gothic','Meiryo',sans-serif" fill="#000">6</text><path d="M50 318 L50 322" stroke="#000" stroke-width="0.8" fill="none"/><text x="50" y="333" font-size="9" text-anchor="middle" font-weight="normal" font-family="'Hiragino Sans','Hiragino Kaku Gothic ProN','Yu Gothic','Meiryo',sans-serif" fill="#000">8</text><path d="M203.33 318 L203.33 322" stroke="#000" stroke-width="0.8" fill="none"/><text x="203.33" y="333" font-size="9" text-anchor="middle" font-weight="normal" font-family="'Hiragino Sans','Hiragino Kaku Gothic ProN','Yu Gothic','Meiryo',sans-serif" fill="#000">8</text><text x="80.67" y="338" font-size="10" text-anchor="middle" font-weight="normal" font-family="'Hiragino Sans','Hiragino Kaku Gothic ProN','Yu Gothic','Meiryo',sans-serif" fill="#000">男（％）</text><text x="172.67" y="338" font-size="10" text-anchor="middle" font-weight="normal" font-family="'Hiragino Sans','Hiragino Kaku Gothic ProN','Yu Gothic','Meiryo',sans-serif" fill="#000">女（％）</text>
<rect x="253.33" y="44" width="213.33" height="300" fill="none" stroke="#000" stroke-width="1.2"/><text x="360" y="64" font-size="14" text-anchor="middle" font-weight="bold" font-family="'Hiragino Sans','Hiragino Kaku Gothic ProN','Yu Gothic','Meiryo',sans-serif" fill="#000">C国</text><defs><clipPath id="hc206"><rect x="340.83" y="304.76" width="19.17" height="12.24" fill="#fff" stroke="none"/></clipPath></defs><rect x="340.83" y="304.76" width="19.17" height="12.24" fill="#fff" stroke="none"/><g clip-path="url(#hc206)"><path d="M328.6 317 L340.83 304.76" stroke="#000" stroke-width="1.1" fill="none"/><path d="M335.6 317 L347.83 304.76" stroke="#000" stroke-width="1.1" fill="none"/><path d="M342.6 317 L354.83 304.76" stroke="#000" stroke-width="1.1" fill="none"/><path d="M349.6 317 L361.83 304.76" stroke="#000" stroke-width="1.1" fill="none"/><path d="M356.6 317 L368.83 304.76" stroke="#000" stroke-width="1.1" fill="none"/><path d="M363.6 317 L375.83 304.76" stroke="#000" stroke-width="1.1" fill="none"/></g><rect x="340.83" y="304.76" width="19.17" height="12.24" fill="none" stroke="#000" stroke-width="0.8"/><rect x="360" y="304.76" width="18.21" height="12.24" fill="#fff" stroke="#000" stroke-width="0.8"/><text x="360" y="316" font-size="7.5" text-anchor="middle" font-weight="normal" font-family="'Hiragino Sans','Hiragino Kaku Gothic ProN','Yu Gothic','Meiryo',sans-serif" fill="#000">0〜4</text><defs><clipPath id="hc207"><rect x="339.88" y="290.53" width="20.13" height="12.24" fill="#fff" stroke="none"/></clipPath></defs><rect x="339.88" y="290.53" width="20.13" height="12.24" fill="#fff" stroke="none"/><g clip-path="url(#hc207)"><path d="M327.64 302.76 L339.88 290.53" stroke="#000" stroke-width="1.1" fill="none"/><path d="M334.64 302.76 L346.88 290.53" stroke="#000" stroke-width="1.1" fill="none"/><path d="M341.64 302.76 L353.88 290.53" stroke="#000" stroke-width="1.1" fill="none"/><path d="M348.64 302.76 L360.88 290.53" stroke="#000" stroke-width="1.1" fill="none"/><path d="M355.64 302.76 L367.88 290.53" stroke="#000" stroke-width="1.1" fill="none"/><path d="M362.64 302.76 L374.88 290.53" stroke="#000" stroke-width="1.1" fill="none"/></g><rect x="339.88" y="290.53" width="20.13" height="12.24" fill="none" stroke="#000" stroke-width="0.8"/><rect x="360" y="290.53" width="19.17" height="12.24" fill="#fff" stroke="#000" stroke-width="0.8"/><defs><clipPath id="hc208"><rect x="337" y="276.29" width="23" height="12.24" fill="#fff" stroke="none"/></clipPath></defs><rect x="337" y="276.29" width="23" height="12.24" fill="#fff" stroke="none"/><g clip-path="url(#hc208)"><path d="M324.76 288.53 L337 276.29" stroke="#000" stroke-width="1.1" fill="none"/><path d="M331.76 288.53 L344 276.29" stroke="#000" stroke-width="1.1" fill="none"/><path d="M338.76 288.53 L351 276.29" stroke="#000" stroke-width="1.1" fill="none"/><path d="M345.76 288.53 L358 276.29" stroke="#000" stroke-width="1.1" fill="none"/><path d="M352.76 288.53 L365 276.29" stroke="#000" stroke-width="1.1" fill="none"/><path d="M359.76 288.53 L372 276.29" stroke="#000" stroke-width="1.1" fill="none"/><path d="M366.76 288.53 L379 276.29" stroke="#000" stroke-width="1.1" fill="none"/></g><rect x="337" y="276.29" width="23" height="12.24" fill="none" stroke="#000" stroke-width="0.8"/><rect x="360" y="276.29" width="22.04" height="12.24" fill="#fff" stroke="#000" stroke-width="0.8"/><text x="360" y="287.53" font-size="7.5" text-anchor="middle" font-weight="normal" font-family="'Hiragino Sans','Hiragino Kaku Gothic ProN','Yu Gothic','Meiryo',sans-serif" fill="#000">10〜14</text><defs><clipPath id="hc209"><rect x="335.08" y="262.06" width="24.92" height="12.24" fill="#fff" stroke="none"/></clipPath></defs><rect x="335.08" y="262.06" width="24.92" height="12.24" fill="#fff" stroke="none"/><g clip-path="url(#hc209)"><path d="M322.85 274.29 L335.08 262.06" stroke="#000" stroke-width="1.1" fill="none"/><path d="M329.85 274.29 L342.08 262.06" stroke="#000" stroke-width="1.1" fill="none"/><path d="M336.85 274.29 L349.08 262.06" stroke="#000" stroke-width="1.1" fill="none"/><path d="M343.85 274.29 L356.08 262.06" stroke="#000" stroke-width="1.1" fill="none"/><path d="M350.85 274.29 L363.08 262.06" stroke="#000" stroke-width="1.1" fill="none"/><path d="M357.85 274.29 L370.08 262.06" stroke="#000" stroke-width="1.1" fill="none"/><path d="M364.85 274.29 L377.08 262.06" stroke="#000" stroke-width="1.1" fill="none"/></g><rect x="335.08" y="262.06" width="24.92" height="12.24" fill="none" stroke="#000" stroke-width="0.8"/><rect x="360" y="262.06" width="23.96" height="12.24" fill="#fff" stroke="#000" stroke-width="0.8"/><defs><clipPath id="hc210"><rect x="333.17" y="247.82" width="26.83" height="12.24" fill="#fff" stroke="none"/></clipPath></defs><rect x="333.17" y="247.82" width="26.83" height="12.24" fill="#fff" stroke="none"/><g clip-path="url(#hc210)"><path d="M320.93 260.06 L333.17 247.82" stroke="#000" stroke-width="1.1" fill="none"/><path d="M327.93 260.06 L340.17 247.82" stroke="#000" stroke-width="1.1" fill="none"/><path d="M334.93 260.06 L347.17 247.82" stroke="#000" stroke-width="1.1" fill="none"/><path d="M341.93 260.06 L354.17 247.82" stroke="#000" stroke-width="1.1" fill="none"/><path d="M348.93 260.06 L361.17 247.82" stroke="#000" stroke-width="1.1" fill="none"/><path d="M355.93 260.06 L368.17 247.82" stroke="#000" stroke-width="1.1" fill="none"/><path d="M362.93 260.06 L375.17 247.82" stroke="#000" stroke-width="1.1" fill="none"/></g><rect x="333.17" y="247.82" width="26.83" height="12.24" fill="none" stroke="#000" stroke-width="0.8"/><rect x="360" y="247.82" width="25.88" height="12.24" fill="#fff" stroke="#000" stroke-width="0.8"/><text x="360" y="259.06" font-size="7.5" text-anchor="middle" font-weight="normal" font-family="'Hiragino Sans','Hiragino Kaku Gothic ProN','Yu Gothic','Meiryo',sans-serif" fill="#000">20〜24</text><defs><clipPath id="hc211"><rect x="331.25" y="233.59" width="28.75" height="12.24" fill="#fff" stroke="none"/></clipPath></defs><rect x="331.25" y="233.59" width="28.75" height="12.24" fill="#fff" stroke="none"/><g clip-path="url(#hc211)"><path d="M319.01 245.82 L331.25 233.59" stroke="#000" stroke-width="1.1" fill="none"/><path d="M326.01 245.82 L338.25 233.59" stroke="#000" stroke-width="1.1" fill="none"/><path d="M333.01 245.82 L345.25 233.59" stroke="#000" stroke-width="1.1" fill="none"/><path d="M340.01 245.82 L352.25 233.59" stroke="#000" stroke-width="1.1" fill="none"/><path d="M347.01 245.82 L359.25 233.59" stroke="#000" stroke-width="1.1" fill="none"/><path d="M354.01 245.82 L366.25 233.59" stroke="#000" stroke-width="1.1" fill="none"/><path d="M361.01 245.82 L373.25 233.59" stroke="#000" stroke-width="1.1" fill="none"/></g><rect x="331.25" y="233.59" width="28.75" height="12.24" fill="none" stroke="#000" stroke-width="0.8"/><rect x="360" y="233.59" width="27.79" height="12.24" fill="#fff" stroke="#000" stroke-width="0.8"/><defs><clipPath id="hc212"><rect x="329.33" y="219.35" width="30.67" height="12.24" fill="#fff" stroke="none"/></clipPath></defs><rect x="329.33" y="219.35" width="30.67" height="12.24" fill="#fff" stroke="none"/><g clip-path="url(#hc212)"><path d="M317.1 231.59 L329.33 219.35" stroke="#000" stroke-width="1.1" fill="none"/><path d="M324.1 231.59 L336.33 219.35" stroke="#000" stroke-width="1.1" fill="none"/><path d="M331.1 231.59 L343.33 219.35" stroke="#000" stroke-width="1.1" fill="none"/><path d="M338.1 231.59 L350.33 219.35" stroke="#000" stroke-width="1.1" fill="none"/><path d="M345.1 231.59 L357.33 219.35" stroke="#000" stroke-width="1.1" fill="none"/><path d="M352.1 231.59 L364.33 219.35" stroke="#000" stroke-width="1.1" fill="none"/><path d="M359.1 231.59 L371.33 219.35" stroke="#000" stroke-width="1.1" fill="none"/><path d="M366.1 231.59 L378.33 219.35" stroke="#000" stroke-width="1.1" fill="none"/></g><rect x="329.33" y="219.35" width="30.67" height="12.24" fill="none" stroke="#000" stroke-width="0.8"/><rect x="360" y="219.35" width="29.71" height="12.24" fill="#fff" stroke="#000" stroke-width="0.8"/><text x="360" y="230.59" font-size="7.5" text-anchor="middle" font-weight="normal" font-family="'Hiragino Sans','Hiragino Kaku Gothic ProN','Yu Gothic','Meiryo',sans-serif" fill="#000">30〜34</text><defs><clipPath id="hc213"><rect x="326.46" y="205.12" width="33.54" height="12.24" fill="#fff" stroke="none"/></clipPath></defs><rect x="326.46" y="205.12" width="33.54" height="12.24" fill="#fff" stroke="none"/><g clip-path="url(#hc213)"><path d="M314.22 217.35 L326.46 205.12" stroke="#000" stroke-width="1.1" fill="none"/><path d="M321.22 217.35 L333.46 205.12" stroke="#000" stroke-width="1.1" fill="none"/><path d="M328.22 217.35 L340.46 205.12" stroke="#000" stroke-width="1.1" fill="none"/><path d="M335.22 217.35 L347.46 205.12" stroke="#000" stroke-width="1.1" fill="none"/><path d="M342.22 217.35 L354.46 205.12" stroke="#000" stroke-width="1.1" fill="none"/><path d="M349.22 217.35 L361.46 205.12" stroke="#000" stroke-width="1.1" fill="none"/><path d="M356.22 217.35 L368.46 205.12" stroke="#000" stroke-width="1.1" fill="none"/><path d="M363.22 217.35 L375.46 205.12" stroke="#000" stroke-width="1.1" fill="none"/></g><rect x="326.46" y="205.12" width="33.54" height="12.24" fill="none" stroke="#000" stroke-width="0.8"/><rect x="360" y="205.12" width="32.58" height="12.24" fill="#fff" stroke="#000" stroke-width="0.8"/><defs><clipPath id="hc214"><rect x="322.62" y="190.88" width="37.38" height="12.24" fill="#fff" stroke="none"/></clipPath></defs><rect x="322.62" y="190.88" width="37.38" height="12.24" fill="#fff" stroke="none"/><g clip-path="url(#hc214)"><path d="M310.39 203.12 L322.62 190.88" stroke="#000" stroke-width="1.1" fill="none"/><path d="M317.39 203.12 L329.62 190.88" stroke="#000" stroke-width="1.1" fill="none"/><path d="M324.39 203.12 L336.62 190.88" stroke="#000" stroke-width="1.1" fill="none"/><path d="M331.39 203.12 L343.62 190.88" stroke="#000" stroke-width="1.1" fill="none"/><path d="M338.39 203.12 L350.62 190.88" stroke="#000" stroke-width="1.1" fill="none"/><path d="M345.39 203.12 L357.62 190.88" stroke="#000" stroke-width="1.1" fill="none"/><path d="M352.39 203.12 L364.62 190.88" stroke="#000" stroke-width="1.1" fill="none"/><path d="M359.39 203.12 L371.62 190.88" stroke="#000" stroke-width="1.1" fill="none"/><path d="M366.39 203.12 L378.62 190.88" stroke="#000" stroke-width="1.1" fill="none"/></g><rect x="322.62" y="190.88" width="37.38" height="12.24" fill="none" stroke="#000" stroke-width="0.8"/><rect x="360" y="190.88" width="36.42" height="12.24" fill="#fff" stroke="#000" stroke-width="0.8"/><text x="360" y="202.12" font-size="7.5" text-anchor="middle" font-weight="normal" font-family="'Hiragino Sans','Hiragino Kaku Gothic ProN','Yu Gothic','Meiryo',sans-serif" fill="#000">40〜44</text><defs><clipPath id="hc215"><rect x="321.67" y="176.65" width="38.33" height="12.24" fill="#fff" stroke="none"/></clipPath></defs><rect x="321.67" y="176.65" width="38.33" height="12.24" fill="#fff" stroke="none"/><g clip-path="url(#hc215)"><path d="M309.43 188.88 L321.67 176.65" stroke="#000" stroke-width="1.1" fill="none"/><path d="M316.43 188.88 L328.67 176.65" stroke="#000" stroke-width="1.1" fill="none"/><path d="M323.43 188.88 L335.67 176.65" stroke="#000" stroke-width="1.1" fill="none"/><path d="M330.43 188.88 L342.67 176.65" stroke="#000" stroke-width="1.1" fill="none"/><path d="M337.43 188.88 L349.67 176.65" stroke="#000" stroke-width="1.1" fill="none"/><path d="M344.43 188.88 L356.67 176.65" stroke="#000" stroke-width="1.1" fill="none"/><path d="M351.43 188.88 L363.67 176.65" stroke="#000" stroke-width="1.1" fill="none"/><path d="M358.43 188.88 L370.67 176.65" stroke="#000" stroke-width="1.1" fill="none"/><path d="M365.43 188.88 L377.67 176.65" stroke="#000" stroke-width="1.1" fill="none"/></g><rect x="321.67" y="176.65" width="38.33" height="12.24" fill="none" stroke="#000" stroke-width="0.8"/><rect x="360" y="176.65" width="38.33" height="12.24" fill="#fff" stroke="#000" stroke-width="0.8"/><defs><clipPath id="hc216"><rect x="323.58" y="162.41" width="36.42" height="12.24" fill="#fff" stroke="none"/></clipPath></defs><rect x="323.58" y="162.41" width="36.42" height="12.24" fill="#fff" stroke="none"/><g clip-path="url(#hc216)"><path d="M311.35 174.65 L323.58 162.41" stroke="#000" stroke-width="1.1" fill="none"/><path d="M318.35 174.65 L330.58 162.41" stroke="#000" stroke-width="1.1" fill="none"/><path d="M325.35 174.65 L337.58 162.41" stroke="#000" stroke-width="1.1" fill="none"/><path d="M332.35 174.65 L344.58 162.41" stroke="#000" stroke-width="1.1" fill="none"/><path d="M339.35 174.65 L351.58 162.41" stroke="#000" stroke-width="1.1" fill="none"/><path d="M346.35 174.65 L358.58 162.41" stroke="#000" stroke-width="1.1" fill="none"/><path d="M353.35 174.65 L365.58 162.41" stroke="#000" stroke-width="1.1" fill="none"/><path d="M360.35 174.65 L372.58 162.41" stroke="#000" stroke-width="1.1" fill="none"/></g><rect x="323.58" y="162.41" width="36.42" height="12.24" fill="none" stroke="#000" stroke-width="0.8"/><rect x="360" y="162.41" width="37.38" height="12.24" fill="#fff" stroke="#000" stroke-width="0.8"/><text x="360" y="173.65" font-size="7.5" text-anchor="middle" font-weight="normal" font-family="'Hiragino Sans','Hiragino Kaku Gothic ProN','Yu Gothic','Meiryo',sans-serif" fill="#000">50〜54</text><defs><clipPath id="hc217"><rect x="326.46" y="148.18" width="33.54" height="12.24" fill="#fff" stroke="none"/></clipPath></defs><rect x="326.46" y="148.18" width="33.54" height="12.24" fill="#fff" stroke="none"/><g clip-path="url(#hc217)"><path d="M314.22 160.41 L326.46 148.18" stroke="#000" stroke-width="1.1" fill="none"/><path d="M321.22 160.41 L333.46 148.18" stroke="#000" stroke-width="1.1" fill="none"/><path d="M328.22 160.41 L340.46 148.18" stroke="#000" stroke-width="1.1" fill="none"/><path d="M335.22 160.41 L347.46 148.18" stroke="#000" stroke-width="1.1" fill="none"/><path d="M342.22 160.41 L354.46 148.18" stroke="#000" stroke-width="1.1" fill="none"/><path d="M349.22 160.41 L361.46 148.18" stroke="#000" stroke-width="1.1" fill="none"/><path d="M356.22 160.41 L368.46 148.18" stroke="#000" stroke-width="1.1" fill="none"/><path d="M363.22 160.41 L375.46 148.18" stroke="#000" stroke-width="1.1" fill="none"/></g><rect x="326.46" y="148.18" width="33.54" height="12.24" fill="none" stroke="#000" stroke-width="0.8"/><rect x="360" y="148.18" width="34.5" height="12.24" fill="#fff" stroke="#000" stroke-width="0.8"/><defs><clipPath id="hc218"><rect x="328.38" y="133.94" width="31.62" height="12.24" fill="#fff" stroke="none"/></clipPath></defs><rect x="328.38" y="133.94" width="31.62" height="12.24" fill="#fff" stroke="none"/><g clip-path="url(#hc218)"><path d="M316.14 146.18 L328.38 133.94" stroke="#000" stroke-width="1.1" fill="none"/><path d="M323.14 146.18 L335.38 133.94" stroke="#000" stroke-width="1.1" fill="none"/><path d="M330.14 146.18 L342.38 133.94" stroke="#000" stroke-width="1.1" fill="none"/><path d="M337.14 146.18 L349.38 133.94" stroke="#000" stroke-width="1.1" fill="none"/><path d="M344.14 146.18 L356.38 133.94" stroke="#000" stroke-width="1.1" fill="none"/><path d="M351.14 146.18 L363.38 133.94" stroke="#000" stroke-width="1.1" fill="none"/><path d="M358.14 146.18 L370.38 133.94" stroke="#000" stroke-width="1.1" fill="none"/><path d="M365.14 146.18 L377.38 133.94" stroke="#000" stroke-width="1.1" fill="none"/></g><rect x="328.38" y="133.94" width="31.62" height="12.24" fill="none" stroke="#000" stroke-width="0.8"/><rect x="360" y="133.94" width="33.54" height="12.24" fill="#fff" stroke="#000" stroke-width="0.8"/><text x="360" y="145.18" font-size="7.5" text-anchor="middle" font-weight="normal" font-family="'Hiragino Sans','Hiragino Kaku Gothic ProN','Yu Gothic','Meiryo',sans-serif" fill="#000">60〜64</text><defs><clipPath id="hc219"><rect x="330.29" y="119.71" width="29.71" height="12.24" fill="#fff" stroke="none"/></clipPath></defs><rect x="330.29" y="119.71" width="29.71" height="12.24" fill="#fff" stroke="none"/><g clip-path="url(#hc219)"><path d="M318.06 131.94 L330.29 119.71" stroke="#000" stroke-width="1.1" fill="none"/><path d="M325.06 131.94 L337.29 119.71" stroke="#000" stroke-width="1.1" fill="none"/><path d="M332.06 131.94 L344.29 119.71" stroke="#000" stroke-width="1.1" fill="none"/><path d="M339.06 131.94 L351.29 119.71" stroke="#000" stroke-width="1.1" fill="none"/><path d="M346.06 131.94 L358.29 119.71" stroke="#000" stroke-width="1.1" fill="none"/><path d="M353.06 131.94 L365.29 119.71" stroke="#000" stroke-width="1.1" fill="none"/><path d="M360.06 131.94 L372.29 119.71" stroke="#000" stroke-width="1.1" fill="none"/></g><rect x="330.29" y="119.71" width="29.71" height="12.24" fill="none" stroke="#000" stroke-width="0.8"/><rect x="360" y="119.71" width="31.62" height="12.24" fill="#fff" stroke="#000" stroke-width="0.8"/><defs><clipPath id="hc220"><rect x="334.12" y="105.47" width="25.88" height="12.24" fill="#fff" stroke="none"/></clipPath></defs><rect x="334.12" y="105.47" width="25.88" height="12.24" fill="#fff" stroke="none"/><g clip-path="url(#hc220)"><path d="M321.89 117.71 L334.12 105.47" stroke="#000" stroke-width="1.1" fill="none"/><path d="M328.89 117.71 L341.12 105.47" stroke="#000" stroke-width="1.1" fill="none"/><path d="M335.89 117.71 L348.12 105.47" stroke="#000" stroke-width="1.1" fill="none"/><path d="M342.89 117.71 L355.12 105.47" stroke="#000" stroke-width="1.1" fill="none"/><path d="M349.89 117.71 L362.12 105.47" stroke="#000" stroke-width="1.1" fill="none"/><path d="M356.89 117.71 L369.12 105.47" stroke="#000" stroke-width="1.1" fill="none"/><path d="M363.89 117.71 L376.12 105.47" stroke="#000" stroke-width="1.1" fill="none"/></g><rect x="334.12" y="105.47" width="25.88" height="12.24" fill="none" stroke="#000" stroke-width="0.8"/><rect x="360" y="105.47" width="29.71" height="12.24" fill="#fff" stroke="#000" stroke-width="0.8"/><text x="360" y="116.71" font-size="7.5" text-anchor="middle" font-weight="normal" font-family="'Hiragino Sans','Hiragino Kaku Gothic ProN','Yu Gothic','Meiryo',sans-serif" fill="#000">70〜74</text><defs><clipPath id="hc221"><rect x="341.79" y="91.24" width="18.21" height="12.24" fill="#fff" stroke="none"/></clipPath></defs><rect x="341.79" y="91.24" width="18.21" height="12.24" fill="#fff" stroke="none"/><g clip-path="url(#hc221)"><path d="M329.56 103.47 L341.79 91.24" stroke="#000" stroke-width="1.1" fill="none"/><path d="M336.56 103.47 L348.79 91.24" stroke="#000" stroke-width="1.1" fill="none"/><path d="M343.56 103.47 L355.79 91.24" stroke="#000" stroke-width="1.1" fill="none"/><path d="M350.56 103.47 L362.79 91.24" stroke="#000" stroke-width="1.1" fill="none"/><path d="M357.56 103.47 L369.79 91.24" stroke="#000" stroke-width="1.1" fill="none"/><path d="M364.56 103.47 L376.79 91.24" stroke="#000" stroke-width="1.1" fill="none"/></g><rect x="341.79" y="91.24" width="18.21" height="12.24" fill="none" stroke="#000" stroke-width="0.8"/><rect x="360" y="91.24" width="24.92" height="12.24" fill="#fff" stroke="#000" stroke-width="0.8"/><defs><clipPath id="hc222"><rect x="347.54" y="77" width="12.46" height="12.24" fill="#fff" stroke="none"/></clipPath></defs><rect x="347.54" y="77" width="12.46" height="12.24" fill="#fff" stroke="none"/><g clip-path="url(#hc222)"><path d="M335.31 89.24 L347.54 77" stroke="#000" stroke-width="1.1" fill="none"/><path d="M342.31 89.24 L354.54 77" stroke="#000" stroke-width="1.1" fill="none"/><path d="M349.31 89.24 L361.54 77" stroke="#000" stroke-width="1.1" fill="none"/><path d="M356.31 89.24 L368.54 77" stroke="#000" stroke-width="1.1" fill="none"/><path d="M363.31 89.24 L375.54 77" stroke="#000" stroke-width="1.1" fill="none"/></g><rect x="347.54" y="77" width="12.46" height="12.24" fill="none" stroke="#000" stroke-width="0.8"/><rect x="360" y="77" width="22.04" height="12.24" fill="#fff" stroke="#000" stroke-width="0.8"/><text x="360" y="88.24" font-size="7.5" text-anchor="middle" font-weight="normal" font-family="'Hiragino Sans','Hiragino Kaku Gothic ProN','Yu Gothic','Meiryo',sans-serif" fill="#000">80以上</text><path d="M360 76 L360 318" stroke="#000" stroke-width="1" fill="none"/><path d="M267.33 318 L452.67 318" stroke="#000" stroke-width="1" fill="none"/><path d="M340.83 318 L340.83 322" stroke="#000" stroke-width="0.8" fill="none"/><text x="340.83" y="333" font-size="9" text-anchor="middle" font-weight="normal" font-family="'Hiragino Sans','Hiragino Kaku Gothic ProN','Yu Gothic','Meiryo',sans-serif" fill="#000">2</text><path d="M379.17 318 L379.17 322" stroke="#000" stroke-width="0.8" fill="none"/><text x="379.17" y="333" font-size="9" text-anchor="middle" font-weight="normal" font-family="'Hiragino Sans','Hiragino Kaku Gothic ProN','Yu Gothic','Meiryo',sans-serif" fill="#000">2</text><path d="M321.67 318 L321.67 322" stroke="#000" stroke-width="0.8" fill="none"/><text x="321.67" y="333" font-size="9" text-anchor="middle" font-weight="normal" font-family="'Hiragino Sans','Hiragino Kaku Gothic ProN','Yu Gothic','Meiryo',sans-serif" fill="#000">4</text><path d="M398.33 318 L398.33 322" stroke="#000" stroke-width="0.8" fill="none"/><text x="398.33" y="333" font-size="9" text-anchor="middle" font-weight="normal" font-family="'Hiragino Sans','Hiragino Kaku Gothic ProN','Yu Gothic','Meiryo',sans-serif" fill="#000">4</text><path d="M302.5 318 L302.5 322" stroke="#000" stroke-width="0.8" fill="none"/><text x="302.5" y="333" font-size="9" text-anchor="middle" font-weight="normal" font-family="'Hiragino Sans','Hiragino Kaku Gothic ProN','Yu Gothic','Meiryo',sans-serif" fill="#000">6</text><path d="M417.5 318 L417.5 322" stroke="#000" stroke-width="0.8" fill="none"/><text x="417.5" y="333" font-size="9" text-anchor="middle" font-weight="normal" font-family="'Hiragino Sans','Hiragino Kaku Gothic ProN','Yu Gothic','Meiryo',sans-serif" fill="#000">6</text><path d="M283.33 318 L283.33 322" stroke="#000" stroke-width="0.8" fill="none"/><text x="283.33" y="333" font-size="9" text-anchor="middle" font-weight="normal" font-family="'Hiragino Sans','Hiragino Kaku Gothic ProN','Yu Gothic','Meiryo',sans-serif" fill="#000">8</text><path d="M436.67 318 L436.67 322" stroke="#000" stroke-width="0.8" fill="none"/><text x="436.67" y="333" font-size="9" text-anchor="middle" font-weight="normal" font-family="'Hiragino Sans','Hiragino Kaku Gothic ProN','Yu Gothic','Meiryo',sans-serif" fill="#000">8</text><text x="314" y="338" font-size="10" text-anchor="middle" font-weight="normal" font-family="'Hiragino Sans','Hiragino Kaku Gothic ProN','Yu Gothic','Meiryo',sans-serif" fill="#000">男（％）</text><text x="406" y="338" font-size="10" text-anchor="middle" font-weight="normal" font-family="'Hiragino Sans','Hiragino Kaku Gothic ProN','Yu Gothic','Meiryo',sans-serif" fill="#000">女（％）</text>
<text x="20" y="382" font-size="11" text-anchor="start" font-weight="normal" font-family="'Hiragino Sans','Hiragino Kaku Gothic ProN','Yu Gothic','Meiryo',sans-serif" fill="#000">※ 訓練用に作成した架空の数値であり、実在の地点・国ではない。</text>
</svg>
